<svg id="Layer_1" data-name="Layer 1" xmlns="http://www.w3.org/2000/svg" viewBox="0 0 1366 1366"><defs><style>.cls-1{fill:#fff;}.cls-2{fill:none;stroke-width:30px;}.cls-2,.cls-7{stroke:#7f8e9d;stroke-miterlimit:10;}.cls-3{fill:#7ab0ce;}.cls-4{fill:#f0f0f0;}.cls-5{opacity:0.5;}.cls-6{opacity:0.2;}.cls-7{fill:#020202;stroke-width:16px;}.cls-8{fill:#d37469;}</style></defs><path class="cls-1" d="M685.62,228.23a486.84,486.84,0,1,1-190.06,38.38,485.25,485.25,0,0,1,190.06-38.38m0,906.59c230.68,0,418.35-187.67,418.35-418.34S916.3,298.13,685.62,298.13,267.27,485.8,267.27,716.48s187.67,418.34,418.35,418.34m0-932.8a513,513,0,1,0,200.27,40.45A511.32,511.32,0,0,0,685.62,202Zm0,906.59c-216.23,0-392.14-175.91-392.14-392.13S469.39,324.34,685.62,324.34s392.13,175.91,392.13,392.14-175.91,392.13-392.13,392.13Z"/><path class="cls-1" d="M981.46,380.51l50.82,50.82L395,1068.61l-50.82-50.82L981.46,380.51m0-37.07L962.93,362,325.65,999.25l-18.53,18.54,18.53,18.53,50.82,50.82L395,1105.68l18.53-18.54,637.28-637.27,18.53-18.54-18.53-18.53L1000,362l-18.54-18.54Z"/><path class="cls-1" d="M1330.6,469.6c-13.9-40.9-41.1-70.4-81.4-86.4-42.1-16.7-84.4-14-125.5,3.7-34.3,14.8-59.2,40.5-77.6,72.4-6.3,10.9-11,22.7-16.7,34.6h-694c-5.8-19.8-16.3-36.9-27.8-53.6-37-53.9-111.7-78.2-168.6-63.9-49.3,12.4-83.5,41.3-101.5,87.9C22.7,502.7,18.9,543.2,22,584.4A656,656,0,0,0,36,679c14.3,63.3,36.7,123.4,68.4,180,28.5,50.8,67.4,91.5,118.4,119.7,21.5,11.9,44.6,19.6,70.2,12.3,14.2-4.1,25.9-11.3,34.4-23.3,3.1-4.4,6.3-6.2,11.8-6.2q344,.3,688,0c5.3,0,8.4,1.5,11.5,5.8,14,19.7,34.4,27.4,57.3,26.2,16.7-.9,32.9-6.2,47.7-14.8,45.4-26.3,82.5-61.1,109.9-106.2,32.7-53.8,55.7-111.7,71.5-172.5,10.4-39.8,17.3-80.2,19.6-121.3C1346.7,541.7,1342.6,505,1330.6,469.6ZM242.3,864.5v5.6a10,10,0,0,1-1.4.8c-7.5-7.5-15.5-14.7-22.6-22.6-17.8-20-30.2-43.5-41.7-67.5-19-39.6-34.7-80.4-44.2-123.4-9.1-41.4-12.8-83.4-9.5-125.8a93.85,93.85,0,0,1,9.6-35.6c7.7-15,20.2-22.4,36.7-23.5,27.9-1.8,47.6,11.2,62.1,33.9,1,1.6,1.9,3.4,2.9,5.1a64.88,64.88,0,0,1,8.1,31.6C242.1,650.3,242.3,757.4,242.3,864.5Zm993-216.5c-.8,4.2-1.8,8.4-2.7,12.6-1.4,6.3-3,12.6-4.7,18.8-1.1,4.2-2.3,8.3-3.6,12.4s-2.5,8.3-3.9,12.4c-4.7,14.4-10.1,28.7-16.1,42.9-1.5,3.7-3.1,7.3-4.7,10.9-9.5,21.8-19.8,43.2-32.4,63.5-2.1,3.4-4.3,6.7-6.5,10a175.45,175.45,0,0,1-35,38c-.2.2-.5.3-.8.6a2.09,2.09,0,0,0-.6.4,9.22,9.22,0,0,0-.8.5h0v-6.7c0-106.6.3-213.2-.3-319.8,0-1,0-2.1.1-3.1a68.26,68.26,0,0,1,8.6-30.5,84.76,84.76,0,0,1,6.2-9.8,77,77,0,0,1,16.8-17.3c1.1-.8,2.3-1.6,3.5-2.3q2.7-1.65,5.4-3a65.29,65.29,0,0,1,11.7-4.3q3.15-.75,6.3-1.2l2.2-.3c2.2-.2,4.4-.4,6.7-.4s4.6.1,7,.3c1.9.2,3.7.4,5.5.7.9.2,1.8.4,2.6.6a40.18,40.18,0,0,1,18,9.5,44.66,44.66,0,0,1,8.4,10.6c9,15.6,10.9,32.9,11.6,50.4A439.68,439.68,0,0,1,1235.3,648Z"/><g id="Layer_1-2" data-name="Layer 1"><path class="cls-2" d="M1072,550.9c-5.3-42.9,25.8-93.1,61-112.9,50-28.2,117.8-18.1,144.4,38.2,12.2,25.8,15.1,55.3,15.1,84-.1,79.2-21.2,157.4-53.5,229-16.2,35.8-35.4,70.6-61.7,99.1-14.2,15.4-95.1,86.3-104.4,38.5-.1-.3-.1-.7-.2-1-1-6.4-.2-12.9-.4-19.3V896.4"/><path class="cls-2" d="M293.2,550.9c5.3-42.9-25.8-93.1-61-112.9-50-28.2-117.8-18.1-144.4,38.2-12.2,25.8-15.1,55.3-15.1,84,.1,79.2,21.2,157.4,53.5,229,16.2,35.8,35.4,70.6,61.7,99.1,14.3,15.5,95.2,86.3,104.5,38.5.1-.3.1-.7.2-1,1-6.4.2-12.9.5-19.3V896.3"/><rect class="cls-3" x="284.5" y="529.7" width="797.1" height="396.3"/><rect class="cls-4" x="278.1" y="529.7" width="49.7" height="396.3"/><rect class="cls-4" x="1038.3" y="529.7" width="48.6" height="396.3"/><g class="cls-5"><g class="cls-6"><polygon class="cls-7" points="327.8 579.1 416.6 578.9 505.4 578.8 683 578.6 860.7 578.8 949.5 578.9 1038.3 579.1 949.5 579.3 860.7 579.4 683 579.6 505.4 579.4 416.6 579.3 327.8 579.1"/></g><g class="cls-6"><polygon class="cls-7" points="327.8 638.6 416.6 638.4 505.4 638.3 683 638.1 860.7 638.3 949.5 638.4 1038.3 638.6 949.5 638.8 860.7 638.9 683 639 505.4 638.9 416.6 638.8 327.8 638.6"/></g><g class="cls-6"><polygon class="cls-7" points="327.8 698.1 416.6 697.8 505.4 697.8 683 697.6 860.7 697.8 949.5 697.8 1038.3 698.1 949.5 698.3 860.7 698.4 683 698.5 505.4 698.4 416.6 698.3 327.8 698.1"/></g><g class="cls-6"><polygon class="cls-7" points="327.8 757.6 416.6 757.3 505.4 757.3 683 757.1 860.7 757.3 949.5 757.3 1038.3 757.6 949.5 757.8 860.7 757.9 683 758 505.4 757.9 416.6 757.8 327.8 757.6"/></g><g class="cls-6"><polygon class="cls-7" points="327.8 817 416.6 816.8 505.4 816.7 683 816.6 860.7 816.7 949.5 816.8 1038.3 817 949.5 817.3 860.7 817.3 683 817.5 505.4 817.3 416.6 817.3 327.8 817"/></g><g class="cls-6"><polygon class="cls-7" points="327.8 876.5 416.6 876.3 505.4 876.2 683 876.1 860.7 876.2 949.5 876.3 1038.3 876.5 949.5 876.8 860.7 876.8 683 877 505.4 876.8 416.6 876.8 327.8 876.5"/></g></g><rect class="cls-1" x="482.2" y="544.1" width="401.7" height="19.2"/><rect class="cls-1" x="683" y="544.1" width="200.9" height="19.2"/></g><path class="cls-8" d="M685.62,1204.72a486.79,486.79,0,1,1,190.06-38.38A485.18,485.18,0,0,1,685.62,1204.72Zm0-906.59c-230.68,0-418.35,187.67-418.35,418.35s187.67,418.34,418.35,418.34S1104,947.15,1104,716.48,916.3,298.13,685.62,298.13Z"/><rect class="cls-8" x="652.3" y="273.94" width="71.87" height="901.24" transform="translate(713.92 -274.44) rotate(45)"/></svg>