<svg id="Layer_1" data-name="Layer 1" xmlns="http://www.w3.org/2000/svg" viewBox="0 0 1430.6 1523.54"><defs><style>.cls-1{fill:#b75742;}.cls-2{fill:#d67369;}.cls-17,.cls-3{fill:#fff;}.cls-4{fill:#333352;}.cls-5{fill:#4cb9a6;}.cls-6{fill:#bc4d42;}.cls-7{fill:#f48c7f;}.cls-8{fill:#f7a491;}.cls-9{fill:#337970;}.cls-10{fill:#f47458;}.cls-11{fill:#13375b;}.cls-12{fill:#3c8f7c;}.cls-13{fill:#333d51;}.cls-14{fill:#414e74;}.cls-15{fill:#96d9c9;}.cls-16{fill:#d4b663;}.cls-17{font-size:45px;font-family:Lato-Black, Lato;font-weight:800;letter-spacing:-0.01em;}.cls-18{letter-spacing:0em;}</style></defs><path class="cls-1" d="M940.75,582.83s15.63,5.66,30.21,28.39,21,89.63,21,89.63L964.1,715.54Z"/><path class="cls-2" d="M891.35,137.31a18.63,18.63,0,1,1,22.91-13A18.64,18.64,0,0,1,891.35,137.31Z"/><path class="cls-2" d="M648.11,83A18.63,18.63,0,1,1,671,70,18.63,18.63,0,0,1,648.11,83Z"/><path class="cls-2" d="M650.63,260.27a18.63,18.63,0,1,1,22.92-13A18.64,18.64,0,0,1,650.63,260.27Z"/><path class="cls-2" d="M855.28,254.28a22.34,22.34,0,1,1,27.46-15.61A22.32,22.32,0,0,1,855.28,254.28Z"/><path class="cls-2" d="M866.32,185.16a12.77,12.77,0,1,1,16.75-6.74A12.77,12.77,0,0,1,866.32,185.16Z"/><path class="cls-2" d="M717.8,272.71a12.76,12.76,0,1,1,15.7-8.92A12.77,12.77,0,0,1,717.8,272.71Z"/><path class="cls-2" d="M724.81,30.81a12.77,12.77,0,1,1,15.7-8.92A12.77,12.77,0,0,1,724.81,30.81Z"/><path class="cls-2" d="M825.89,56.42A28.72,28.72,0,1,1,861.2,36.35,28.71,28.71,0,0,1,825.89,56.42Z"/><path class="cls-2" d="M609.76,176.22a28.72,28.72,0,1,1,35.31-20.07A28.71,28.71,0,0,1,609.76,176.22Z"/><path class="cls-2" d="M765.19,326a28.72,28.72,0,1,1,35.31-20.07A28.73,28.73,0,0,1,765.19,326Z"/><path class="cls-2" d="M782.45,295.65a60.21,60.21,0,0,1-6.76-16,102.59,102.59,0,0,1-3.47-24.92c0-1.82-.14-7.16-.05-15.77a90.46,90.46,0,0,0,48.61-29.58c1.41.55,2.81,1.11,4.2,1.69q4.9,2.06,9.64,4.33c8.7,4.27,19.22,11.88,23.42,20.25l7.46-9.91a27.5,27.5,0,0,1-5.23-1.62,44.75,44.75,0,0,1-4.73-2.27,56.6,56.6,0,0,1-8.49-5.85,71.26,71.26,0,0,1-7.48-7.18q-3.5-3.93-6.81-8.06-1.56-1.95-3.07-3.94a90.5,90.5,0,0,0,10.67-28.06c9.29,1.6,21.64,4.26,29.74,9.1l2.45-8.89c-9.74,0-22-4.24-31-7.71a89.85,89.85,0,0,0-.81-25.83c15.49-4.76,37.88-11.93,54.37-10L893,113.21c-15,7.3-38.76,7.88-55.89,8.48a90.35,90.35,0,0,0-30.06-41.85c7.41-15,15.21-30.11,27.85-41.3a43.77,43.77,0,0,1,5.89-4.5L826.19,23.42a44.47,44.47,0,0,1-2.45,7c-6.83,15.78-19.28,28.26-31.45,40.14A90.45,90.45,0,0,0,741,61.74c-4.28-11.23-7.77-20.89-8.66-32.1a45.19,45.19,0,0,1,.45-11.8l-9.12,1.32a34.87,34.87,0,0,1,2.28,5.54c4.12,12.65,3.3,26.16,2.25,39.59a90.4,90.4,0,0,0-37.34,20.76c-8.19-3.91-25-11.53-31.23-23l-7.55,9.85c6.16,1.5,13,6.24,17.73,10.59,3.29,3,9.13,9.58,11.73,12.58A90.38,90.38,0,0,0,662.32,143a97.59,97.59,0,0,1-25.44.88c-8-.85-18-3.36-24-7.41l-1.4,18c6.62-3.07,16.89-4,24.87-3.61a98.4,98.4,0,0,1,25.73,5,90.25,90.25,0,0,0,18.31,49.83c-5.07,7.38-15.69,23-25.87,31.71l9.11,8.43c7-9.69,20.29-20.72,28.56-27.38a89.71,89.71,0,0,0,34.92,19.22c-2.07,6.7-5.75,15.7-10.23,21.13l8.66,3.15c.06-7.13,3.12-16.61,5.9-23.15a89.5,89.5,0,0,0,28,2.11c2.3,8,3.54,12.94,4.08,15,3.21,12.65,5,29.88,1,42.17Z"/><path class="cls-3" d="M796.38,106.1c-1.82,5-10.88,6.36-20.25,3s-15.48-10.21-13.67-15.23,10.88-6.36,20.25-3S798.19,101.08,796.38,106.1Z"/><path class="cls-3" d="M703.76,121.73c-2.56,7.08-8.34,11.48-12.91,9.83s-6.19-8.73-3.63-15.81,8.33-11.48,12.9-9.83S706.32,114.65,703.76,121.73Z"/><path class="cls-3" d="M745.13,194.87c-3.46,5.14-12.44,5.16-20.07,0s-11-13.45-7.54-18.59,12.44-5.16,20.06,0S748.59,189.72,745.13,194.87Z"/><path class="cls-3" d="M825.88,166.79c-3.06,8.46-9.61,13.84-14.63,12s-6.62-10.14-3.57-18.59,9.6-13.83,14.63-12S828.93,158.34,825.88,166.79Z"/><path class="cls-3" d="M798.28,193c-.95-3.77-7.06-5.48-13.66-3.82s-11.17,6.06-10.22,9.82,7.06,5.48,13.65,3.83S799.23,196.76,798.28,193Z"/><path class="cls-3" d="M721.82,73.18c-4.08,1.56-6.75,4.48-6,6.53s4.73,2.42,8.81.86,6.76-4.49,6-6.53S725.91,71.61,721.82,73.18Z"/><path class="cls-3" d="M674.85,165.76c.77,4.3,2.69,7.56,4.29,7.27s2.28-4,1.51-8.31-2.69-7.56-4.29-7.27S674.08,161.46,674.85,165.76Z"/><path class="cls-3" d="M738.54,222.23c4.26,1,8,.48,8.37-1.1s-2.79-3.67-7-4.64-8-.49-8.38,1.1S734.28,221.25,738.54,222.23Z"/><path class="cls-3" d="M789,77.26c-.83,2.29-6.5,2.33-12.66.11s-10.5-5.89-9.67-8.18,6.49-2.32,12.66-.1S789.85,75,789,77.26Z"/><path class="cls-3" d="M733.92,139.18c-2.22,6.17-7,10.09-10.65,8.77s-4.81-7.39-2.58-13.55,7-10.1,10.65-8.78S736.15,133,733.92,139.18Z"/><path class="cls-3" d="M828.52,122.26c.83,6.51-1.63,12.18-5.49,12.67s-7.64-4.39-8.47-10.9,1.64-12.17,5.49-12.66S827.7,115.76,828.52,122.26Z"/><path class="cls-3" d="M780.58,159.32c.54,7.51-5.5,14.06-13.49,14.64s-14.91-5-15.46-12.54,5.5-14.07,13.49-14.65S780,151.81,780.58,159.32Z"/><path class="cls-2" d="M375.46,581.82a23.11,23.11,0,1,1,28.41-16.15A23.11,23.11,0,0,1,375.46,581.82Z"/><path class="cls-2" d="M73.75,514.51a23.11,23.11,0,1,1,28.42-16.15A23.12,23.12,0,0,1,73.75,514.51Z"/><path class="cls-2" d="M76.88,734.33a23.11,23.11,0,1,1,28.42-16.15A23.11,23.11,0,0,1,76.88,734.33Z"/><path class="cls-2" d="M330.71,726.9a27.71,27.71,0,1,1,34.07-19.36A27.7,27.7,0,0,1,330.71,726.9Z"/><path class="cls-2" d="M344.41,641.16a15.83,15.83,0,1,1,20.77-8.35A15.83,15.83,0,0,1,344.41,641.16Z"/><path class="cls-2" d="M160.19,749.76a15.83,15.83,0,1,1,19.47-11.06A15.83,15.83,0,0,1,160.19,749.76Z"/><path class="cls-2" d="M168.89,449.71a15.83,15.83,0,1,1,19.46-11.06A15.82,15.82,0,0,1,168.89,449.71Z"/><circle class="cls-2" cx="303.71" cy="447.14" r="35.62" transform="translate(-218.04 305.9) rotate(-40.67)"/><path class="cls-2" d="M26.18,630.08A35.63,35.63,0,1,1,70,605.19,35.61,35.61,0,0,1,26.18,630.08Z"/><path class="cls-2" d="M219,815.85A35.62,35.62,0,1,1,262.77,791,35.61,35.61,0,0,1,219,815.85Z"/><path class="cls-2" d="M240.38,778.22c-3.73-5.71-6.53-13.23-8.38-19.86a127.11,127.11,0,0,1-4.31-30.9c0-2.25-.18-8.89-.06-19.57a112.15,112.15,0,0,0,60.29-36.69q2.63,1,5.22,2.11c4.05,1.69,8,3.49,11.94,5.36,10.8,5.3,23.84,14.74,29.05,25.12l9.26-12.29a34.57,34.57,0,0,1-6.49-2,54.62,54.62,0,0,1-5.86-2.83,69.74,69.74,0,0,1-10.53-7.25,87.54,87.54,0,0,1-9.28-8.91q-4.34-4.86-8.46-10-1.92-2.4-3.8-4.88a112.16,112.16,0,0,0,13.24-34.8c11.52,2,26.84,5.28,36.89,11.28l3-11c-12.07,0-27.31-5.26-38.45-9.57a110.89,110.89,0,0,0-1-32c19.21-5.91,47-14.8,67.44-12.39l-2.57-15.18c-18.64,9.06-48.08,9.78-69.32,10.52a112.16,112.16,0,0,0-37.29-51.91c9.19-18.54,18.86-37.35,34.54-51.23a54.8,54.8,0,0,1,7.31-5.58l-18.16-13.17a55.2,55.2,0,0,1-3,8.68c-8.47,19.58-23.92,35.06-39,49.79a112.18,112.18,0,0,0-63.66-10.94c-5.3-13.93-9.63-25.91-10.74-39.82-.33-4.49-.38-10.26.57-14.63l-11.32,1.64a43.23,43.23,0,0,1,2.83,6.86c5.11,15.7,4.09,32.45,2.79,49.11A112.16,112.16,0,0,0,126.74,517c-10.17-4.85-30.95-14.31-38.74-28.52L78.64,500.7c7.63,1.85,16.07,7.74,22,13.14,4.07,3.66,11.32,11.87,14.55,15.6a112.14,112.14,0,0,0-23.81,59.37,121.22,121.22,0,0,1-31.56,1.1c-9.89-1.06-22.28-4.18-29.78-9.2l-1.74,22.37c8.21-3.81,20.94-5,30.85-4.48a121.92,121.92,0,0,1,31.91,6.26,112,112,0,0,0,22.71,61.81c-6.28,9.15-19.46,28.54-32.09,39.33L93,716.46c8.75-12,25.17-25.7,35.43-34a111.05,111.05,0,0,0,43.32,23.84c-2.57,8.31-7.14,19.48-12.7,26.21l10.75,3.91c.07-8.84,3.86-20.6,7.31-28.71a111.21,111.21,0,0,0,34.73,2.61c2.85,9.9,4.39,16,5.07,18.57,4,15.69,6.15,37.07,1.27,52.31Z"/><path class="cls-3" d="M257.65,543.11c-2.25,6.23-13.49,7.88-25.11,3.68s-19.21-12.65-16.95-18.88,13.49-7.88,25.11-3.69S259.9,536.88,257.65,543.11Z"/><path class="cls-3" d="M142.77,562.49c-3.17,8.79-10.34,14.25-16,12.2s-7.69-10.83-4.52-19.61,10.34-14.24,16-12.2S146,553.71,142.77,562.49Z"/><path class="cls-3" d="M194.09,653.2c-4.29,6.39-15.44,6.41-24.89,0s-13.65-16.68-9.36-23.06,15.43-6.41,24.89-.05S198.38,646.82,194.09,653.2Z"/><path class="cls-3" d="M294.24,618.39c-3.78,10.48-11.91,17.15-18.14,14.9s-8.22-12.58-4.43-23.06,11.91-17.15,18.15-14.9S298,607.91,294.24,618.39Z"/><path class="cls-3" d="M260,650.88c-1.17-4.68-8.76-6.8-16.94-4.74s-13.86,7.51-12.68,12.19,8.76,6.79,16.94,4.74S261.19,655.55,260,650.88Z"/><path class="cls-3" d="M165.18,502.27c-5.06,1.94-8.38,5.56-7.41,8.1s5.86,3,10.93,1.06,8.38-5.56,7.41-8.1S170.24,500.33,165.18,502.27Z"/><path class="cls-3" d="M106.92,617.1c1,5.34,3.34,9.38,5.32,9s2.82-5,1.87-10.31-3.34-9.38-5.32-9S106,611.77,106.92,617.1Z"/><path class="cls-3" d="M185.92,687.14c5.28,1.21,9.93.6,10.38-1.36s-3.47-4.54-8.75-5.76-9.94-.6-10.39,1.37S180.63,685.93,185.92,687.14Z"/><path class="cls-3" d="M248.54,507.34c-1,2.83-8.06,2.89-15.71.12s-13-7.3-12-10.13,8-2.89,15.7-.13S249.56,504.5,248.54,507.34Z"/><path class="cls-3" d="M180.19,584.13c-2.76,7.65-8.68,12.53-13.21,10.89s-6-9.17-3.21-16.82,8.68-12.52,13.22-10.88S183,576.48,180.19,584.13Z"/><path class="cls-3" d="M297.53,563.15c1,8.07-2,15.1-6.81,15.71s-9.49-5.45-10.51-13.52,2-15.1,6.81-15.7S296.51,555.08,297.53,563.15Z"/><path class="cls-3" d="M238.06,609.11c.67,9.31-6.82,17.45-16.73,18.17s-18.5-6.25-19.18-15.56,6.82-17.45,16.73-18.17S237.38,599.8,238.06,609.11Z"/><path class="cls-2" d="M1402,1087a22.59,22.59,0,1,1,27.77-15.78A22.59,22.59,0,0,1,1402,1087Z"/><path class="cls-2" d="M1107.14,1021.18a22.59,22.59,0,1,1,27.78-15.79A22.6,22.6,0,0,1,1107.14,1021.18Z"/><path class="cls-2" d="M1110.2,1236a22.59,22.59,0,1,1,27.78-15.79A22.59,22.59,0,0,1,1110.2,1236Z"/><path class="cls-2" d="M1358.27,1228.76a27.08,27.08,0,1,1,33.3-18.93A27.08,27.08,0,0,1,1358.27,1228.76Z"/><path class="cls-2" d="M1371.66,1145a15.48,15.48,0,1,1,20.3-8.17A15.48,15.48,0,0,1,1371.66,1145Z"/><path class="cls-2" d="M1191.63,1251.1a15.47,15.47,0,1,1,19-10.82A15.49,15.49,0,0,1,1191.63,1251.1Z"/><path class="cls-2" d="M1200.12,957.85a15.47,15.47,0,1,1,19-10.81A15.47,15.47,0,0,1,1200.12,957.85Z"/><path class="cls-2" d="M1322.64,988.9a34.81,34.81,0,1,1,42.81-24.32A34.81,34.81,0,0,1,1322.64,988.9Z"/><path class="cls-2" d="M1060.65,1134.13a34.82,34.82,0,1,1,42.81-24.33A34.82,34.82,0,0,1,1060.65,1134.13Z"/><path class="cls-2" d="M1249.07,1315.69a34.82,34.82,0,1,1,42.81-24.33A34.82,34.82,0,0,1,1249.07,1315.69Z"/><path class="cls-2" d="M1270,1278.91c-3.65-5.58-6.39-12.93-8.2-19.41a124.36,124.36,0,0,1-4.21-30.2c0-2.2-.17-8.68-.06-19.12a109.62,109.62,0,0,0,58.92-35.86c1.72.67,3.42,1.35,5.1,2.06,4,1.65,7.85,3.41,11.68,5.24,10.55,5.18,23.3,14.4,28.39,24.55l9.05-12a33.49,33.49,0,0,1-6.34-2,53.14,53.14,0,0,1-5.73-2.76,69.69,69.69,0,0,1-10.3-7.09,87.45,87.45,0,0,1-9.07-8.7q-4.21-4.77-8.26-9.78-1.87-2.36-3.72-4.77a109.75,109.75,0,0,0,13-34c11.26,1.94,26.22,5.16,36,11l3-10.78c-11.8,0-26.69-5.14-37.58-9.35a108.43,108.43,0,0,0-1-31.31c18.78-5.77,45.92-14.46,65.91-12.11l-2.5-14.83c-18.23,8.85-47,9.56-67.75,10.29a109.6,109.6,0,0,0-36.45-50.74c9-18.12,18.43-36.5,33.76-50.06a53.8,53.8,0,0,1,7.14-5.46L1323,948.9a52.07,52.07,0,0,1-3,8.48c-8.28,19.13-23.37,34.26-38.13,48.66a109.69,109.69,0,0,0-62.21-10.69c-5.18-13.61-9.41-25.32-10.49-38.92a54.27,54.27,0,0,1,.55-14.3l-11.06,1.6a41.44,41.44,0,0,1,2.76,6.72c5,15.33,4,31.71,2.73,48a109.67,109.67,0,0,0-45.26,25.17c-9.93-4.74-30.25-14-37.86-27.87l-9.15,11.94c7.46,1.81,15.71,7.57,21.49,12.84,4,3.58,11.07,11.61,14.22,15.25a109.51,109.51,0,0,0-23.26,58,118.42,118.42,0,0,1-30.85,1.08c-9.66-1-21.78-4.08-29.1-9l-1.7,21.86c8-3.72,20.46-4.85,30.14-4.38a119.05,119.05,0,0,1,31.19,6.12,109.48,109.48,0,0,0,22.19,60.41c-6.13,8.94-19,27.9-31.35,38.44l11,10.22c8.55-11.75,24.6-25.12,34.62-33.2a108.65,108.65,0,0,0,42.34,23.3c-2.51,8.13-7,19-12.41,25.62l10.5,3.82c.07-8.64,3.78-20.13,7.15-28.06a108.91,108.91,0,0,0,33.95,2.55c2.78,9.67,4.28,15.69,4.94,18.15,3.89,15.33,6,36.23,1.25,51.12Z"/><path class="cls-3" d="M1286.87,1049.13c-2.2,6.09-13.19,7.7-24.54,3.6s-18.77-12.36-16.57-18.46,13.19-7.7,24.54-3.6S1289.07,1043,1286.87,1049.13Z"/><path class="cls-3" d="M1174.6,1068.08c-3.1,8.58-10.11,13.92-15.64,11.91s-7.52-10.58-4.41-19.16,10.1-13.92,15.64-11.92S1177.7,1059.49,1174.6,1068.08Z"/><path class="cls-3" d="M1224.75,1156.73c-4.19,6.24-15.08,6.26-24.33,0s-13.33-16.31-9.14-22.55,15.08-6.26,24.33,0S1228.94,1150.49,1224.75,1156.73Z"/><path class="cls-3" d="M1322.64,1122.7c-3.71,10.25-11.65,16.77-17.74,14.57s-8-12.29-4.32-22.54,11.64-16.76,17.73-14.56S1326.34,1112.46,1322.64,1122.7Z"/><path class="cls-3" d="M1289.18,1154.46c-1.15-4.57-8.56-6.65-16.56-4.64s-13.54,7.35-12.39,11.91,8.56,6.65,16.55,4.64S1290.33,1159,1289.18,1154.46Z"/><path class="cls-3" d="M1196.5,1009.21c-5,1.9-8.19,5.45-7.24,7.92s5.73,2.94,10.68,1,8.19-5.44,7.24-7.91S1201.45,1007.32,1196.5,1009.21Z"/><path class="cls-3" d="M1139.56,1121.45c.93,5.21,3.26,9.16,5.2,8.81s2.76-4.85,1.82-10.07-3.26-9.16-5.2-8.82S1138.63,1116.23,1139.56,1121.45Z"/><path class="cls-3" d="M1216.76,1189.9c5.17,1.18,9.71.58,10.16-1.34s-3.4-4.44-8.56-5.62-9.71-.59-10.15,1.34S1211.6,1188.71,1216.76,1189.9Z"/><path class="cls-3" d="M1278,1014.17c-1,2.77-7.88,2.82-15.35.12s-12.73-7.13-11.73-9.9,7.87-2.83,15.35-.12S1279,1011.4,1278,1014.17Z"/><path class="cls-3" d="M1211.17,1089.22c-2.7,7.48-8.49,12.24-12.91,10.64s-5.84-9-3.13-16.43,8.48-12.24,12.91-10.64S1213.87,1081.75,1211.17,1089.22Z"/><path class="cls-3" d="M1325.84,1068.72c1,7.89-2,14.76-6.65,15.35s-9.27-5.32-10.27-13.21,2-14.76,6.66-15.35S1324.85,1060.83,1325.84,1068.72Z"/><path class="cls-3" d="M1267.72,1113.64c.66,9.1-6.66,17-16.35,17.75s-18.08-6.11-18.74-15.21,6.66-17,16.35-17.75S1267.06,1104.54,1267.72,1113.64Z"/><path class="cls-2" d="M1383.68,453.6a12.54,12.54,0,1,1,15.42-8.76A12.54,12.54,0,0,1,1383.68,453.6Z"/><path class="cls-2" d="M1220,417.09a12.54,12.54,0,1,1,15.41-8.77A12.55,12.55,0,0,1,1220,417.09Z"/><circle class="cls-2" cx="1225.03" cy="524.25" r="12.54" transform="translate(494.08 1638.36) rotate(-79.9)"/><path class="cls-2" d="M1359.4,532.31a15,15,0,1,1,18.49-10.5A15,15,0,0,1,1359.4,532.31Z"/><path class="cls-2" d="M1366.84,485.8a8.59,8.59,0,1,1,11.26-4.54A8.59,8.59,0,0,1,1366.84,485.8Z"/><path class="cls-2" d="M1266.9,544.71a8.59,8.59,0,1,1,10.56-6A8.59,8.59,0,0,1,1266.9,544.71Z"/><path class="cls-2" d="M1271.62,381.93a8.59,8.59,0,1,1,10.56-6A8.58,8.58,0,0,1,1271.62,381.93Z"/><path class="cls-2" d="M1339.63,399.17a19.33,19.33,0,1,1,23.76-13.5A19.33,19.33,0,0,1,1339.63,399.17Z"/><path class="cls-2" d="M1194.2,479.78a19.32,19.32,0,1,1,23.76-13.5A19.33,19.33,0,0,1,1194.2,479.78Z"/><path class="cls-2" d="M1298.79,580.56a19.32,19.32,0,1,1,23.76-13.5A19.33,19.33,0,0,1,1298.79,580.56Z"/><path class="cls-2" d="M1310.4,560.15a40.85,40.85,0,0,1-4.55-10.77,68.65,68.65,0,0,1-2.33-16.77c0-1.22-.1-4.82,0-10.61a60.86,60.86,0,0,0,32.71-19.91c1,.37,1.9.75,2.83,1.14,2.2.92,4.36,1.9,6.48,2.91,5.86,2.88,12.94,8,15.76,13.63l5-6.67a19.12,19.12,0,0,1-3.53-1.08,29.15,29.15,0,0,1-3.18-1.54,38,38,0,0,1-5.71-3.93,47.71,47.71,0,0,1-5-4.83q-2.35-2.64-4.59-5.43c-.7-.87-1.38-1.75-2.06-2.65a61.11,61.11,0,0,0,7.18-18.87c6.25,1.07,14.56,2.86,20,6.12l1.65-6c-6.55,0-14.82-2.85-20.87-5.19a59.64,59.64,0,0,0-.54-17.37c10.43-3.21,25.49-8,36.59-6.72l-1.39-8.24c-10.12,4.91-26.09,5.31-37.61,5.71A60.8,60.8,0,0,0,1327,414.93c5-10.06,10.23-20.26,18.74-27.79a29.56,29.56,0,0,1,4-3l-9.85-7.14a29.3,29.3,0,0,1-1.65,4.7c-4.59,10.62-13,19-21.16,27a60.86,60.86,0,0,0-34.53-5.93c-2.88-7.56-5.23-14.06-5.83-21.6a30.1,30.1,0,0,1,.31-7.94l-6.15.89a21.93,21.93,0,0,1,1.54,3.72c2.77,8.52,2.22,17.61,1.51,26.64a60.9,60.9,0,0,0-25.12,14c-5.51-2.63-16.79-7.77-21-15.48l-5.08,6.63c4.14,1,8.71,4.2,11.93,7.13,2.21,2,6.14,6.45,7.89,8.47a60.71,60.71,0,0,0-12.91,32.2,65.49,65.49,0,0,1-17.13.6c-5.36-.57-12.09-2.27-16.15-5l-.94,12.14c4.45-2.07,11.36-2.7,16.73-2.43a66,66,0,0,1,17.31,3.39,60.72,60.72,0,0,0,12.32,33.53c-3.41,5-10.56,15.49-17.41,21.34l6.13,5.67c4.75-6.52,13.66-13.94,19.22-18.43a60.37,60.37,0,0,0,23.5,12.94c-1.39,4.51-3.87,10.56-6.88,14.22l5.83,2.12c0-4.8,2.09-11.17,4-15.58a60.39,60.39,0,0,0,18.84,1.42c1.55,5.37,2.39,8.71,2.75,10.08,2.16,8.5,3.34,20.1.69,28.37Z"/><path class="cls-3" d="M1319.77,432.6c-1.22,3.38-7.32,4.28-13.62,2s-10.42-6.86-9.2-10.24,7.32-4.28,13.62-2S1321,429.22,1319.77,432.6Z"/><path class="cls-3" d="M1257.45,443.12c-1.72,4.76-5.61,7.72-8.68,6.61s-4.17-5.87-2.45-10.63,5.61-7.73,8.68-6.62S1259.17,438.35,1257.45,443.12Z"/><path class="cls-3" d="M1285.29,492.33c-2.33,3.46-8.38,3.47-13.51,0s-7.4-9.05-5.07-12.51,8.37-3.47,13.5,0S1287.61,488.87,1285.29,492.33Z"/><path class="cls-3" d="M1339.62,473.44c-2,5.69-6.46,9.31-9.84,8.08s-4.46-6.82-2.4-12.5,6.46-9.31,9.84-8.09S1341.68,467.75,1339.62,473.44Z"/><path class="cls-3" d="M1321.05,491.07c-.64-2.54-4.75-3.69-9.19-2.57s-7.52,4.07-6.88,6.61,4.75,3.68,9.19,2.57S1321.69,493.6,1321.05,491.07Z"/><path class="cls-3" d="M1269.61,410.45c-2.75,1.05-4.55,3-4,4.39s3.18,1.63,5.92.58,4.55-3,4-4.4S1272.35,409.39,1269.61,410.45Z"/><path class="cls-3" d="M1238,472.74c.52,2.9,1.81,5.09,2.89,4.9s1.53-2.7,1-5.59-1.81-5.09-2.89-4.9S1237.48,469.85,1238,472.74Z"/><path class="cls-3" d="M1280.86,510.74c2.86.66,5.38.32,5.63-.74s-1.88-2.46-4.75-3.12-5.39-.33-5.63.74S1278,510.08,1280.86,510.74Z"/><path class="cls-3" d="M1314.83,413.2c-.56,1.53-4.37,1.56-8.52.06s-7.07-4-6.51-5.49,4.37-1.57,8.52-.07S1315.38,411.66,1314.83,413.2Z"/><path class="cls-3" d="M1277.75,454.86c-1.5,4.15-4.71,6.79-7.17,5.9s-3.24-5-1.74-9.12,4.71-6.79,7.17-5.91S1279.25,450.71,1277.75,454.86Z"/><path class="cls-3" d="M1341.4,443.48c.56,4.37-1.1,8.19-3.69,8.52s-5.15-3-5.7-7.34,1.1-8.19,3.69-8.52S1340.85,439.1,1341.4,443.48Z"/><path class="cls-3" d="M1309.14,468.41c.37,5-3.7,9.46-9.08,9.85s-10-3.39-10.4-8.44,3.7-9.46,9.08-9.85S1308.77,463.36,1309.14,468.41Z"/><rect class="cls-4" x="125.2" y="1510.09" width="1103.67" height="13.44"/><path class="cls-5" d="M218.16,917.61a11.31,11.31,0,1,1-11.3-11.3A11.3,11.3,0,0,1,218.16,917.61Z"/><path class="cls-5" d="M225.58,1068.62a11.3,11.3,0,1,1-11.3-11.31A11.3,11.3,0,0,1,225.58,1068.62Z"/><circle class="cls-5" cx="317.53" cy="1038.61" r="11.3"/><path class="cls-5" d="M292.39,919.88a13.56,13.56,0,1,1-13.56-13.55A13.55,13.55,0,0,1,292.39,919.88Z"/><path class="cls-5" d="M250.18,924.55a7.74,7.74,0,1,1-6.64-8.71A7.74,7.74,0,0,1,250.18,924.55Z"/><path class="cls-5" d="M325.3,997.32a7.75,7.75,0,1,1-7.75-7.74A7.74,7.74,0,0,1,325.3,997.32Z"/><path class="cls-5" d="M182.68,1032.17a7.74,7.74,0,1,1-7.74-7.75A7.74,7.74,0,0,1,182.68,1032.17Z"/><path class="cls-5" d="M181.39,968.93A17.42,17.42,0,1,1,164,951.5,17.42,17.42,0,0,1,181.39,968.93Z"/><path class="cls-5" d="M286.26,1076.05a17.43,17.43,0,1,1-17.43-17.43A17.43,17.43,0,0,1,286.26,1076.05Z"/><path class="cls-5" d="M347.56,958.28a17.43,17.43,0,1,1-17.42-17.42A17.42,17.42,0,0,1,347.56,958.28Z"/><path class="cls-5" d="M328.31,955.81a36.65,36.65,0,0,1-8.28,6.54,62.43,62.43,0,0,1-14,6c-1.06.3-4.17,1.24-9.22,2.57a54.86,54.86,0,0,0-25.12-23.67c.09-.92.19-1.83.31-2.73q.4-3.21,1-6.33c1.1-5.78,3.85-13.16,8.07-17l-7-2.77a15.85,15.85,0,0,1-.1,3.32,24.68,24.68,0,0,1-.57,3.13,35,35,0,0,1-2.05,5.91,43,43,0,0,1-3,5.53c-1.15,1.78-2.35,3.54-3.62,5.28-.58.82-1.19,1.62-1.8,2.43a55,55,0,0,0-18.13-1.73c-.56-5.69-1-13.34.53-18.86h-5.59c1.57,5.7,1.06,13.56.48,19.38a54.61,54.61,0,0,0-15,4.63c-5.28-8.3-13.07-20.23-14.59-30.2l-6.83,3.18c6.69,7.62,10.86,21.41,14,31.33a54.76,54.76,0,0,0-19.63,24.32c-9.94-1.93-20.07-4-28.64-9.64a26.91,26.91,0,0,1-3.59-2.72L162,974.06a27.53,27.53,0,0,1,4.49.31c10.33,1.45,19.63,6.73,28.54,11.93a54.88,54.88,0,0,0,3.11,31.44c-5.89,4.31-11,7.9-17.39,10.23a27.28,27.28,0,0,1-7,1.63l2.24,5.13a21.4,21.4,0,0,1,2.87-2.23c6.74-4.44,14.77-6.14,22.79-7.69a54.93,54.93,0,0,0,18.16,18.5c-1,5.42-2.73,16.45-8.42,22l7,2.83c-.12-3.85,1.56-8.59,3.34-12.08,1.2-2.4,4.13-6.88,5.47-8.89a54.7,54.7,0,0,0,31.08,3.52A59.59,59.59,0,0,1,263,1065.4c.78,4.8.92,11-.47,15.24l10.77-2.08c-2.86-3.38-5.06-9.23-6.12-14a60,60,0,0,1-1.19-15.86,54.74,54.74,0,0,0,26.2-18.73c5.13,1.77,16,5.47,22.71,10l3.47-6.69c-6.8-2.57-15.39-8.53-20.62-12.29a54.47,54.47,0,0,0,5.62-23.53c4.25.14,10.11.84,14,2.59l.45-5.58c-4.18,1.12-10.22.85-14.49.28A54.58,54.58,0,0,0,300,978.09c4.3-2.62,7-4.15,8.1-4.79,6.88-3.92,16.68-7.71,24.5-7.4Z"/><path class="cls-5" d="M1024.85,195.33a6.83,6.83,0,1,1-6.83-6.83A6.82,6.82,0,0,1,1024.85,195.33Z"/><path class="cls-5" d="M1029.33,286.48a6.83,6.83,0,1,1-6.83-6.82A6.83,6.83,0,0,1,1029.33,286.48Z"/><circle class="cls-5" cx="1084.83" cy="268.37" r="6.82"/><path class="cls-5" d="M1069.65,196.7a8.18,8.18,0,1,1-8.18-8.18A8.18,8.18,0,0,1,1069.65,196.7Z"/><path class="cls-5" d="M1044.17,199.52a4.67,4.67,0,1,1-4-5.26A4.67,4.67,0,0,1,1044.17,199.52Z"/><circle class="cls-5" cx="1084.85" cy="243.44" r="4.67"/><circle class="cls-5" cx="998.75" cy="264.48" r="4.67"/><path class="cls-5" d="M1002.65,226.3a10.52,10.52,0,1,1-10.52-10.51A10.52,10.52,0,0,1,1002.65,226.3Z"/><path class="cls-5" d="M1066,291a10.52,10.52,0,1,1-10.51-10.52A10.52,10.52,0,0,1,1066,291Z"/><path class="cls-5" d="M1103,219.88a10.52,10.52,0,1,1-10.52-10.52A10.52,10.52,0,0,1,1103,219.88Z"/><path class="cls-5" d="M1091.34,218.39a21.59,21.59,0,0,1-5,3.94,37.74,37.74,0,0,1-8.45,3.65c-.65.18-2.52.75-5.57,1.55a33.08,33.08,0,0,0-15.17-14.29c.06-.55.12-1.1.19-1.65.17-1.29.37-2.56.59-3.82.67-3.49,2.33-7.94,4.88-10.24l-4.23-1.67a9.44,9.44,0,0,1-.06,2,18.6,18.6,0,0,1-.34,1.89,20.93,20.93,0,0,1-1.24,3.57,27.68,27.68,0,0,1-1.81,3.34c-.7,1.08-1.42,2.14-2.19,3.19-.35.49-.72,1-1.09,1.47a33.15,33.15,0,0,0-10.94-1c-.34-3.43-.6-8.05.32-11.38h-3.38c1,3.44.65,8.18.29,11.7a32.66,32.66,0,0,0-9,2.79c-3.19-5-7.89-12.21-8.81-18.23l-4.12,1.92c4,4.6,6.55,12.92,8.43,18.91a33.09,33.09,0,0,0-11.85,14.68c-6-1.16-12.11-2.44-17.29-5.82a15.08,15.08,0,0,1-2.17-1.64L991,229.4a17.21,17.21,0,0,1,2.71.19c6.23.88,11.85,4.06,17.23,7.2a33.16,33.16,0,0,0,1.87,19c-3.55,2.6-6.62,4.77-10.49,6.18a16.21,16.21,0,0,1-4.21,1l1.35,3.1a13.19,13.19,0,0,1,1.73-1.35c4.07-2.68,8.92-3.7,13.76-4.64a33.2,33.2,0,0,0,11,11.17c-.59,3.27-1.65,9.93-5.09,13.26l4.21,1.71a16.7,16.7,0,0,1,2-7.29c.72-1.45,2.49-4.16,3.3-5.37a33.08,33.08,0,0,0,18.77,2.13,35.75,35.75,0,0,1,2.78,8.89c.48,2.9.56,6.68-.28,9.2l6.5-1.26c-1.72-2-3-5.57-3.69-8.42a36.36,36.36,0,0,1-.72-9.58,33.05,33.05,0,0,0,15.82-11.31c3.09,1.07,9.65,3.31,13.71,6.06l2.09-4c-4.11-1.55-9.29-5.15-12.45-7.42a32.86,32.86,0,0,0,3.4-14.2,24.75,24.75,0,0,1,8.45,1.56l.27-3.37a25.14,25.14,0,0,1-8.74.17,32.77,32.77,0,0,0-2-10.09c2.59-1.59,4.22-2.51,4.89-2.9,4.15-2.36,10.07-4.65,14.79-4.46Z"/><path class="cls-4" d="M1254.2,685.18a7.71,7.71,0,1,1-7.7-7.71A7.7,7.7,0,0,1,1254.2,685.18Z"/><path class="cls-4" d="M1259.26,788.11a7.71,7.71,0,1,1-7.71-7.7A7.71,7.71,0,0,1,1259.26,788.11Z"/><path class="cls-4" d="M1329.64,767.66a7.71,7.71,0,1,1-7.7-7.71A7.7,7.7,0,0,1,1329.64,767.66Z"/><path class="cls-4" d="M1304.8,686.72a9.24,9.24,0,1,1-9.24-9.23A9.24,9.24,0,0,1,1304.8,686.72Z"/><path class="cls-4" d="M1276,689.91a5.28,5.28,0,1,1-4.53-5.94A5.28,5.28,0,0,1,1276,689.91Z"/><path class="cls-4" d="M1327.23,739.51a5.28,5.28,0,1,1-5.28-5.28A5.27,5.27,0,0,1,1327.23,739.51Z"/><path class="cls-4" d="M1230,763.27a5.28,5.28,0,1,1-5.28-5.28A5.28,5.28,0,0,1,1230,763.27Z"/><circle class="cls-4" cx="1217.26" cy="720.16" r="11.88" transform="translate(236.7 1739.39) rotate(-76.72)"/><circle class="cls-4" cx="1288.74" cy="793.18" r="11.88" transform="translate(-183.4 1143.59) rotate(-45)"/><path class="cls-4" d="M1342.41,712.9A11.88,11.88,0,1,1,1330.53,701,11.88,11.88,0,0,1,1342.41,712.9Z"/><path class="cls-4" d="M1329.28,711.22a24.73,24.73,0,0,1-5.64,4.45,42.6,42.6,0,0,1-9.55,4.12c-.72.2-2.84.84-6.28,1.75a37.39,37.39,0,0,0-17.13-16.13c.06-.63.14-1.25.21-1.87.19-1.45.41-2.89.67-4.31.75-3.94,2.63-9,5.51-11.56l-4.78-1.89a11.27,11.27,0,0,1-.06,2.26,21.26,21.26,0,0,1-.39,2.14,23.32,23.32,0,0,1-1.4,4,30,30,0,0,1-2,3.78q-1.19,1.82-2.47,3.6-.6.82-1.23,1.65a37.68,37.68,0,0,0-12.36-1.18c-.38-3.87-.68-9.09.36-12.85h-3.81c1.07,3.88.72,9.24.33,13.21a37.08,37.08,0,0,0-10.21,3.15c-3.6-5.65-8.92-13.79-10-20.58l-4.65,2.17c4.56,5.19,7.39,14.59,9.51,21.35a37.29,37.29,0,0,0-13.38,16.58c-6.78-1.32-13.68-2.76-19.53-6.57a18.32,18.32,0,0,1-2.44-1.86l-2.62,7a18,18,0,0,1,3,.21c7,1,13.39,4.58,19.46,8.13a37.4,37.4,0,0,0,2.12,21.43c-4,2.94-7.48,5.39-11.85,7a18.42,18.42,0,0,1-4.76,1.12l1.53,3.49a14.64,14.64,0,0,1,2-1.52c4.59-3,10.07-4.18,15.54-5.24a37.39,37.39,0,0,0,12.37,12.61c-.66,3.7-1.86,11.21-5.74,15l4.76,1.93a18.84,18.84,0,0,1,2.28-8.23c.81-1.63,2.81-4.69,3.73-6.06a37.28,37.28,0,0,0,21.18,2.4,40.5,40.5,0,0,1,3.15,10c.53,3.27.63,7.53-.32,10.39l7.34-1.42c-2-2.3-3.45-6.3-4.17-9.52a41,41,0,0,1-.81-10.81,37.36,37.36,0,0,0,17.86-12.77c3.5,1.21,10.9,3.73,15.48,6.83l2.36-4.55c-4.63-1.75-10.48-5.82-14-8.39a37,37,0,0,0,3.83-16,28.14,28.14,0,0,1,9.55,1.76l.31-3.8a28.5,28.5,0,0,1-9.88.19,37.06,37.06,0,0,0-2.23-11.39c2.93-1.79,4.77-2.83,5.52-3.27,4.69-2.67,11.37-5.26,16.7-5Z"/><path class="cls-6" d="M381.59,136.41a87.43,87.43,0,0,1,70.1,139.65l44.5,56.68-67.4-35.33a87.42,87.42,0,1,1-47.2-161Z"/><path class="cls-7" d="M966.36,702.79s7.18,51.73,19.19,54.41,32-73.93,28.51-116.54S1007,593,1010.42,585s10.29-29,10.29-37.36-19.89-33-24.23-32.74-6.43,18-6.43,18l-6.22,52.68Z"/><path class="cls-4" d="M970.59,429.59c-10.38-19.24-21.9-30.31-42.67-32.72C869.09,390,872.27,443.79,790,455.43c-25.55,3.62-49.29,7.09-70.62,19.53-38.52,22.46-53.06,58.49-27.51,117.18C754.46,735.86,908,613.85,927,585.55,938.07,569,947.06,550.86,955.7,533,970.31,502.74,986.53,459.17,970.59,429.59Z"/><path class="cls-8" d="M735.52,1404.62s-4.19,41.64-15,49.28-25.13,35.93-17.95,51.22c2.25,4.77,6.73,7.54,11.84,9.08a31.61,31.61,0,0,0,37.67-17.28,85.92,85.92,0,0,0,7.39-31.74c1.62-33.83,12.39-51,12.39-51Z"/><path class="cls-8" d="M901,1421.66s3.4,42,.64,55.67c-1.47,7.31-9.69,22.36-5.92,29.23s8.08,8.6,8.08,8.6l97.69,1.54c5.32.09,1.8-3.26-2.49-6.34-7-5-12.69-8.38-35.12-19-1.47-.69-6.79-4-8.71-5.15-4.88-2.9-9.77-7.47-14-12-7-7.63-7.63-44.63-7.63-44.63Z"/><path class="cls-9" d="M977.37,863.24s7,67.32,4.22,112.93c-2.73,45.33-46.85,459.21-46.85,459.21l-43.08,2.38s-9-173.15-7.41-197.23,14.4-64.37,14.4-64.37l-4.29-139.79,54.37-183.65Z"/><path class="cls-5" d="M850.75,848.9s-33.93,49.88-42,91.15,5.92,168.14-9.61,222.23c-8.41,29.28-40.29,74.5-45.14,112.33s-23.85,137-23.85,137l43.06,8.34,100.08-247.53,72.43-206.44a221.31,221.31,0,0,0,9.21-35.3l17-97.21Z"/><path class="cls-10" d="M878.21,565.12s-34.51,2.6-47.48,22.21c-14.26,21.58,28.72,171,31.95,195.08s-26.47,80.25-26.47,80.25,111,20.08,141.16.58c0,0,3.23-173.14,0-190.34s-30.16-87.15-36.62-94S878.21,565.12,878.21,565.12Z"/><path class="cls-8" d="M848.31,579.8s-17.89-1.66-19.24,12.87c-1,10.79,0,14.41,0,14.41S840.76,677,890.38,729s67.35,41.28,71.36,35.3c10.46-15.55,26.81-77.46,30.67-146.3l2-35.62s15.52-29,7.52-47.08c-6.22-14.06-6.81-16.08-9.81-20-5.79-7.66-9.81-8-9.81-1.37s1,5.29,0,6.61c-3.15,4.15,2.89,9.45,2.89,20.47s-8.2,5.35-8.2-1.1,3.06-9.92.32-9.92-6.91,3.93-8,14.32c-.67,6.25-2.5,14.07-2.2,23.88.2,6.5,3,14.37,1.67,21.47-3.35,17.81-28.47,121.3-32.08,121.3C928.7,710.92,868.47,588.11,848.31,579.8Z"/><path class="cls-8" d="M893.16,506.49s-.23,1.29-.65,3.49c-2,10.55-9.71,45.54-14.92,55.16-6.3,11.63,21.55,48.7,48.35,44.18,8-1.35-6.74-34.07-6-37.53,1.35-6.64,3.19-15.69,5.07-25,1.06-5.24,2.13-10.55,3.14-15.53,2.87-14.18,5.21-25.78,5.21-25.78Z"/><path class="cls-10" d="M892.51,510c.42-2.2.65-3.49.65-3.49l40.17-1s-2.34,11.6-5.21,25.78c-1,5-2.07,10.23-3.12,15.44-6.21-.89-12.69-3.84-19.18-9.39a49.41,49.41,0,0,1-14.53-21.11C891.79,513.75,892.2,511.62,892.51,510Z"/><path class="cls-8" d="M925.15,416.51a47.7,47.7,0,0,0-28.24,17.22c-11.87,15-24.66,61.36,4.82,86.57s58.61-3.33,62.93-33.58S968.1,415.42,925.15,416.51Z"/><path class="cls-11" d="M931.3,416.66s-25.49,43.92-43.58,46-29.27,21.32-29.27,21.32,6.47-54,24.39-64.39S931.3,416.66,931.3,416.66Z"/><path class="cls-9" d="M755.06,1489.48c-23.47,4.18-39.09-9.23-47.21-19.27-6,11.37-9.63,25.56-5.24,34.91,3.87,8.23,14.39,10.48,23.28,10.8a25.37,25.37,0,0,0,22.86-12.47A75.79,75.79,0,0,0,755.06,1489.48Z"/><path class="cls-9" d="M955.16,1486.23c-25.83,6.47-44.93,2.07-55.61-2.14-2.76,7.63-6.41,17.2-4.48,22.71,2.38,6.76,5.75,8.29,8.74,8.36,23.59.61,86.44,1.43,104.43,1.66a2.87,2.87,0,0,0,2.29-4.72C1006.06,1506.9,957.09,1487.37,955.16,1486.23Z"/><path class="cls-1" d="M867.82,726.51s53-31.7,57.68-43.66c0,0-54.89-106.2-74.83-108.51s-26.85,21.14-23.19,47.85S861.28,720.11,867.82,726.51Z"/><path class="cls-9" d="M906,468.56s-6.37,26.07-16.51,36c0,0,6.65,20.33,24,25.43s36.66-2.23,44.17-18,8.69-25.18,8.69-25.18-.27-3.47-8.48-2.88S917.62,482.25,906,468.56Z"/><path class="cls-12" d="M908.14,478.55l-2.15-10s-15.72-9.81-21.48-8.06l1,3S904.38,472.18,908.14,478.55Z"/><path class="cls-12" d="M894.88,501.61s-7.82-2.62-10.37-12.95l-2-3.42h-4.11l11.13,19.31Z"/><path class="cls-8" d="M892.68,472.45c1.47,7.83-1.49,15-6.61,16S875.6,484,874.13,476.17s1.49-15,6.61-16S891.21,464.62,892.68,472.45Z"/><path class="cls-8" d="M442.42,1436.42s2.28,40.16,2.29,40.24c.84,5.1,4.13,17.7,4.13,22.33,0,17.42-77.48-14.78-60.12-22.5,1.58-.69,9.81-6,10.33-11.9.79-9.13,2.81-27.61,2.81-27.61Z"/><path class="cls-13" d="M388.92,1476.33s18.19,5.33,27.5,6.66,21.6-9.88,28.19-6.85c7.25,3.33,6.52,36.15,6.52,36.15s-98,7.13-125.45-1.7C314.81,1507.08,351.73,1488.74,388.92,1476.33Z"/><path class="cls-8" d="M613.11,1440.27s2.28,40.16,2.29,40.25c.84,5.09,4.13,17.69,4.13,22.33,0,17.41-77.48-14.79-60.12-22.5,1.58-.7,12.25-9.93,12.77-15.85.79-9.13.37-23.66.37-23.66Z"/><path class="cls-13" d="M559.61,1480.18s18.19,5.33,27.5,6.66,21.6-9.88,28.19-6.85c7.25,3.33,7.54,33.34,7.54,33.34s-103.8,7.52-128.21.46C483.67,1510.62,522.42,1492.59,559.61,1480.18Z"/><path class="cls-13" d="M490.34,860.56l-32.76,14.13-68.9,329,2.79,246.68,55.24,1.28s25.69-215.77,25.69-232.5,119-292.63,119-292.63Z"/><path class="cls-14" d="M504.36,882.06s35.39,250.12,35.39,292.85,19.57,281.91,19.57,281.91l55.36-.32s4-72.9,9.93-180.16c.93-16.79-1.2-50.68,0-68.07,8.62-125.07,25.65-242.81,17.51-289.48-1.31-7.52-3.77-27.16-8.56-32.12C597.3,849.16,504.36,882.06,504.36,882.06Z"/><path class="cls-5" d="M606.81,499.53s38.2,5.31,48.26,12.7c11.32,8.31,23.89,26.92,23.89,26.92s-46.91,221.72-47,259c-.06,28.87,10.16,99.74,10.16,99.74S500.38,921,446.7,899.8c0,0,14.66-97.09,16.95-120.55,2.16-22,20.28-223.4,24.89-237.46,4.19-12.75,11.84-35.67,37.74-41.32S606.81,499.53,606.81,499.53Z"/><path class="cls-8" d="M596.38,439.84l9.45,61.91s-34.53,73.72-55.15,67.33c-17.29-5.37-6.65-70.59-6.65-70.59s9.43-35,6.6-52.56S596.38,439.84,596.38,439.84Z"/><path class="cls-10" d="M550.63,445.93c-2.83-17.53,45.75-6.09,45.75-6.09a70.29,70.29,0,0,1-2.15,9.58c-7,18.42-30.94,27.5-45.6,28C550.1,468,551.79,453.11,550.63,445.93Z"/><path class="cls-8" d="M596.2,353.11c1.31-.65,19.12,68.76,3.23,90.29s-50.52,32-65,18.21c-16-15.27-24.16-91.16,1.73-114.42S596.2,353.11,596.2,353.11Z"/><path class="cls-4" d="M542.51,308.21c22.39-1,38,13.46,43.86,18.5,10,0,24.14,3.87,40.72,25.11,20.38,26.12,11.4,58.75-6.72,76.36s-21.76,26.25-21.76,26.25c-3.13-6.64-3.16-13.65-3.23-21a42,42,0,0,1,1.7-13.31c3.6-10.76-12.26-15.78-17.48-23.78-4-6.16-3.5-23.16-11.23-32.4a34.51,34.51,0,0,0-8.17-6.45c-7.09-3.56-18.28-4.9-31.73-.21S492.14,310.37,542.51,308.21Z"/><path class="cls-7" d="M540.79,667.47c-20.5,7.14-35.65,12.16-35.65,12.16L489.4,627.89l3.26-92.38-40,55s-13.16,114.07,12,132.41c15.39,11.21,54.16,0,94.46-17Z"/><path class="cls-9" d="M520.09,502.27s-47.89,9.67-65.91,38.61c-16.71,26.87-12.37,138.52-11.66,154.42L502,664.88s-7.24-37.81-8.52-50.57C485.28,533.7,520.09,502.27,520.09,502.27Z"/><path class="cls-8" d="M462.2,650.67S571.32,765.32,612.43,756c26.84-6.12,56-119.75,56-119.75l-42.94-72L592.89,683.58c-9.21-7.28-112-49.93-118.5-60.78-7-11.8-26.79-33.29-28.12-34.74s-9.26-4.27-11.4-2.14c-3.82,3.8-3.44,20.06-4.32,24.33s.5,7.27-.2,11.26C425.93,646.65,462.2,650.67,462.2,650.67Z"/><path class="cls-9" d="M651.43,512.23a17,17,0,0,0-8.2,3.19,75.61,75.61,0,0,0-25.29,33.75c-7.29,19.29-31.4,124.8-31.4,124.8l64.49,46c9.87-26.7,18.7-53.86,26.52-81.23,5.36-18.78,10.36-37.79,13.44-57.1,3.16-19.72,4.36-43.19-11.36-58.19C673,517,661.31,511,651.43,512.23Z"/><path class="cls-7" d="M696.22,597.66c-1-4.59,1.88-16.4-2.23-18.7-4.45-2.49-14.79,5-20.49,9.64a56.19,56.19,0,0,1,9-9.64c4.84-3.91.22-12.13-6.86-4.2,0,0-19,12.76-22.84,21.56s-5.17,21.52-5.17,21.52c-7.83,6.46-76.07,29.34-106.64,40.62l46.52,22,5.33,3.15c46.16-22.11,81.73-39.45,81.73-39.45s23.59-7,23.59-26.69A130.25,130.25,0,0,0,696.22,597.66Z"/><path class="cls-8" d="M474.39,622.8s-4.12-23.8-10.77-31.52L457,583.56s-9.75-7.4-13.72-3.43,6.59,13,6.59,13Z"/><path class="cls-5" d="M515.78,417.05s3.38-8,12.38-6.43,44.19-.35,44.19-.35-.54,15.47,2.75,22.06c2.55,5.12,19.13,17.09,19.13,17.09s-12.71,18.56-46.8,23.7S515.78,417.05,515.78,417.05Z"/><path class="cls-15" d="M587.27,393l-2.35,1.25a20.61,20.61,0,0,0-7.92,7.39l-8.63,13.92,3.22,5.68Z"/><path class="cls-15" d="M588.31,448.14l5.92,1.28s5.79-31.8,4.95-32.64a4.59,4.59,0,0,1-1-2.41l-4.38,1.19Z"/><path class="cls-8" d="M582,408.78c.87,8.62,5.63,15.21,10.64,14.71s8.38-7.9,7.51-16.52-5.62-15.21-10.63-14.71S581.13,400.16,582,408.78Z"/><polygon class="cls-16" points="1078.94 477.84 1036.15 461.39 1004.24 502.27 1039.15 471.01 1080.07 485.84 1129.68 447.14 1078.94 477.84"/><polygon class="cls-16" points="1014.71 524.59 1052.45 528.93 1064.03 549.99 1118.06 537.29 1061.03 557.18 1049.02 532.88 1014.71 524.59"/><polygon class="cls-16" points="991.98 457.26 997.96 414.42 1042.29 399.36 1051.8 371.06 1047.57 403.01 1004.24 416.93 991.98 457.26"/><circle class="cls-6" cx="838.86" cy="1146.21" r="29.36"/><circle class="cls-3" cx="838.86" cy="1146.21" r="16.49"/><path class="cls-6" d="M654.67,880.85A31.64,31.64,0,1,1,623,849.21,31.63,31.63,0,0,1,654.67,880.85Z"/><path class="cls-3" d="M623,896.85a16,16,0,1,1,16-16A16,16,0,0,1,623,896.85Z"/><path class="cls-6" d="M910.66,396.27a34,34,0,1,1-34-34A34,34,0,0,1,910.66,396.27Z"/><path class="cls-3" d="M876.68,417.38a21.11,21.11,0,1,1,21.12-21.11A21.14,21.14,0,0,1,876.68,417.38Z"/><polygon class="cls-6" points="688.73 800.19 649.17 815.6 661.33 828.44 642.03 849.21 676.76 831.33 662.93 818.47 688.73 800.19"/><polygon class="cls-6" points="913.21 292.91 883.44 323.18 899.79 329.9 890.7 356.76 915.06 326.22 897.17 320.15 913.21 292.91"/><polygon class="cls-6" points="972.92 354.75 930.5 353.03 936.5 369.65 910.5 380.96 949.49 378.49 941.97 361.16 972.92 354.75"/><polygon class="cls-6" points="731.93 1118.49 771.11 1134.86 771.26 1117.18 799.57 1115.63 762.16 1104.38 763.18 1123.24 731.93 1118.49"/><polygon class="cls-6" points="772.74 1052.08 773.25 1094.53 789.54 1087.66 802.2 1113.04 797.68 1074.23 780.77 1082.65 772.74 1052.08"/><path class="cls-6" d="M498.12,482.13c-4.26-2.09-10.61-1-15.16-.27-15.73,2.46-18.59,10.09-23.54,20-6,12-17.32,12.63-20.67,21.91-2.27,6.3,1.72,12.71,0,19-1.51,5.44-6.36,9.24-8.31,14.51-1.11,3-.83,6.14-1.23,9.28-1.05,8.28-10.87,11.17-14.7,25.05-1.89,6.86-2.05,14.09-2.13,21.16,0,2.44,3.75,2.44,3.8,0,.29-14.94,1.09-24.06,10.13-33.81,10.69-11.5,4.68-15,8.86-22.69,1.28-2.34,3-4.42,4.42-6.66,8.52-13.21-4.1-21,7.21-30.13,3.72-3,8.13-5.1,11.39-8.64,3.77-4.08,5.46-9.39,8.13-14.15,8.24-14.69,26.31-10.57,31.82-13.23a.77.77,0,0,0,0-1.31Z"/><path class="cls-6" d="M638.56,473A18.8,18.8,0,0,0,648,485.85c9.23,5.11,20.32-.74,25.43,7.15,1.57,2.43,2.39,5.28,3.92,7.75,7.1,11.42,24.27,3.52,25.13,15.4.42,5.67-2.12,11.38.06,16.93,2.31,5.89,9.86,7.94,9.21,15.11-.61,6.73-4.56,12.57-3.91,19.53.39,4.2,1.92,8.11,3.17,12.1,6.19,19.85,3.35,33.74,3.21,39.63a2,2,0,0,0,3.85.52c3.78-13.4.33-32.09-3.94-45.34-3.64-11.3-1-13.06,1.32-22,1.54-6.07.61-11.25-4-15.62-2.46-2.31-4.95-4.21-5.39-7.8-.72-5.84,4.1-17.2-4.72-22.45-4.51-2.68-10-2.19-14.9-3.71-6.37-2-6.89-8.29-10.5-13-4.25-5.53-11-5.07-17.27-5.18-8.25-.15-14.89-4.51-17.35-12.6a1.42,1.42,0,0,0-2.73.76Z"/><text class="cls-17" transform="translate(315.76 242.3)">O<tspan class="cls-18" x="36.34" y="0">h no!</tspan></text></svg>