<svg id="Layer_1" data-name="Layer 1" xmlns="http://www.w3.org/2000/svg" viewBox="0 0 4515.77 1274.55"><defs><style>.cls-1{fill:#343e52;}.cls-2{fill:#343d51;}</style></defs><path class="cls-1" d="M1339.06,507.32l-.93.16q0-18.15,0-36.3l.92.17Z"/><path class="cls-2" d="M1338.14,471.18q0,18.15,0,36.3a174.56,174.56,0,0,1-.41,21.94c-.81,10.28-2,20.53-3.45,30.75a542.74,542.74,0,0,1-10.7,54.83c-15.2,61-40,118-72,172a815.48,815.48,0,0,1-85.3,117.42c-49.15,56.75-104.32,107-164.39,151.94A1149.38,1149.38,0,0,1,759.18,1195.7c-2.45,1-4.88,2.09-7.32,3.14l-7.38-3c-96.56-39-184.72-92.2-266.12-156.86a1074.31,1074.31,0,0,1-122.2-113.35A893.61,893.61,0,0,1,274,822.72c-.84-1.24-1.68-2.48-2.48-3.75a3.31,3.31,0,0,1-.23-1c.41-1,1.36-.75,2.12-.79,23.87-1.23,48.81-18.92,54.16-49.1a55,55,0,0,0,.59-13c-.11-1.8-.21-3.6-.35-5.83,5.84,2.12,10.88,5,16.25,7.13,5.57,2.19,11.08,4.54,16.68,6.65,5.39,2,10.87,3.86,16.35,5.79-.62,1.87-2.05,2.54-3.09,3.54-13,12.41-19.54,27.67-18.94,45.58a58.71,58.71,0,0,0,48.73,56c12.16,2,24.41,3.25,36.7,4.16s24.62.94,36.94.77a371.25,371.25,0,0,0,45.77-3.71q14.1-1.95,28-4.84c5.79-1.2,4.7-1.05,8.44,2.2a955,955,0,0,0,97.32,74,922.43,922.43,0,0,0,89.46,52.6c2.9,1.49,5.17,1.82,8.27.21,84.3-43.8,161.27-97.84,229.49-164.11,33.76-32.8,64.49-68.22,91.28-107,21.82-31.59,40.57-64.87,55.09-100.47a400.5,400.5,0,0,0,23.33-78.8,354.12,354.12,0,0,0,4.58-35.13,314.53,314.53,0,0,0,.66-39.43c-.88-20.54-4-40.71-10.93-60.18a130.25,130.25,0,0,0-13.53-27.74,101.5,101.5,0,0,0-35.19-33.34c-1.15-.66-2.35-1.27-3.44-2a1.39,1.39,0,0,1-.39-1.28c.57-1.38,1.29-2.7,2-4a109.93,109.93,0,0,0,11.4-38.05c3.89-37.31-7-69.74-33.23-96.7-17.86-18.38-39.81-29.31-65-33.35a114.25,114.25,0,0,0-54.72,4.4q-54,17.88-107.93,35.81l-36,11.93c-.9.3-1.78.92-3,.06,1-.74,1.88-1.45,2.82-2.11a388.46,388.46,0,0,1,139-62.09,371.25,371.25,0,0,1,60.23-8.5,331.89,331.89,0,0,1,47.41.44c50.77,4.12,98.24,18.6,141.4,46,47.23,30,82.17,70.84,105.93,121.35a340.44,340.44,0,0,1,25.26,77.63,401.7,401.7,0,0,1,6.6,46.42A167.43,167.43,0,0,1,1338.14,471.18Z"/><path class="cls-2" d="M192,459.87c1.34-80.29,29.51-149.34,87.2-205.67,35.91-35.07,78.55-58.39,127.38-70.18a273.32,273.32,0,0,1,43.36-6.66,266.79,266.79,0,0,1,47.38.5q76.53,7.74,138.15,53.89A283.43,283.43,0,0,1,698.12,297a9.59,9.59,0,0,0,.85,1.23c2.25,2.35,2.14,4.59.7,7.57A110.4,110.4,0,0,0,688.82,366c3.95,38.46,22.24,68.43,54.78,89.53,4.26,1.5,5.2,4.51,5.1,8.89-1.44,67.49-23.17,127.5-66.35,179.45a274,274,0,0,1-111.09,80.74A276.42,276.42,0,0,1,448.93,742.9c-50.57-4.08-96.83-20.49-137.93-50.3q-88.08-63.89-112.22-170.28a272.66,272.66,0,0,1-6.06-43C192.31,472.89,192,466.41,192,459.87ZM469.76,628c13.41-.25,23.7-1,33.85-3A158.17,158.17,0,0,0,583,583.38c36.46-34.92,55.91-85.77,49.85-139.25a165.52,165.52,0,0,0-13.26-48.93c-24.36-54.76-76.14-91.63-133.63-96.05A154.62,154.62,0,0,0,441.28,302c-38.83,8.38-70.43,28.54-94.33,60.13-28.07,37.1-38.55,79.06-32.3,125.14a157.15,157.15,0,0,0,27.21,70.07C373.68,602.63,417.47,626.1,469.76,628Z"/><path class="cls-2" d="M728.35,357.64c-.11-34.83,20.87-64.39,52.4-75.07,26.77-9.07,53.62-17.89,80.44-26.8q52.3-17.37,104.61-34.72c8.91-3,18-4.85,27.41-4.58q42.72,1.25,65.5,37.41a72.83,72.83,0,0,1,11.19,41.34,77.4,77.4,0,0,1-52.9,72.14q-19.39,6.5-38.81,12.91L831.47,429a79.72,79.72,0,0,1-27,4.36,77.47,77.47,0,0,1-74-59.07A68.68,68.68,0,0,1,728.35,357.64Z"/><path class="cls-1" d="M468.23,861.05a360.18,360.18,0,0,1-58.67-4.18c-16.33-2.38-28-11.07-34-26.58-10-26,9-55.13,38.1-55.3,4.7,0,9.27.9,13.89,1.5a305.63,305.63,0,0,0,59.79,2,310.52,310.52,0,0,0,54.17-8.4c5.49-1.36,10.91-3,16.35-4.52,22-6.29,44.07,5.3,51,26.82a40.83,40.83,0,0,1-24.67,50.82c-7.8,2.89-15.91,4.81-24,6.81a374.88,374.88,0,0,1-49.08,8.78C496.56,860.37,482,861.44,468.23,861.05Z"/><path class="cls-1" d="M705.28,768.39c-21.42.14-38.6-16-40.94-35.45-1.69-14.06,2.62-26,12.79-35.65,8.44-8,16.64-16.31,24.24-25.16A311.49,311.49,0,0,0,753.58,587c.7-1.69,1.34-3.41,2.1-5.07,6.54-14.27,21.76-26.19,42.83-23.55,17,2.12,31,14.65,34.73,32.64A40.41,40.41,0,0,1,831,614.55a395.17,395.17,0,0,1-97.27,142.17,42.83,42.83,0,0,1-20.41,10.9A52.58,52.58,0,0,1,705.28,768.39Z"/><path class="cls-1" d="M706.72,181.09c.21,23.27-18.52,41.58-40.54,41.6a41.31,41.31,0,0,1-23.93-7.36A313.14,313.14,0,0,0,521.74,165.9c-2.46-.46-4.93-.8-7.39-1.21-19.76-3.26-31.46-19.3-33.89-34.16-2.93-18,7.54-40.72,31.23-46.24A45.61,45.61,0,0,1,529.57,84a394.56,394.56,0,0,1,113.9,37,386.69,386.69,0,0,1,45.11,26.6,40.8,40.8,0,0,1,17.48,26.34A45.21,45.21,0,0,1,706.72,181.09Z"/><path class="cls-1" d="M365.12,94.47a40.78,40.78,0,0,1,41.46,44.29c-1.38,17.34-12.91,30.68-28.39,35.76-5.69,1.86-11.4,3.64-17,5.68A303.12,303.12,0,0,0,259.4,241.9a44,44,0,0,1-16.07,9.74c-23.38,7.63-48.48-6.81-53-30.92-2.73-14.55,1.17-27.46,12-37.8,5.54-5.27,11.37-10.26,17.28-15.13A387.59,387.59,0,0,1,351,97C355.78,95.45,360.61,94.25,365.12,94.47Z"/><path class="cls-1" d="M310.26,758.76c.11,22.13-18.35,40.47-40.22,40.64a41.91,41.91,0,0,1-24.82-7.69A392.24,392.24,0,0,1,130.57,668.42c-.85-1.43-1.7-2.86-2.5-4.32-13.44-24.49-.22-54.2,27.06-60.23,17.8-3.93,33.81,4,42.7,17.14.94,1.38,1.74,2.84,2.58,4.27A309.15,309.15,0,0,0,290.2,723c1.09.76,2.21,1.49,3.27,2.29Q310.11,737.9,310.26,758.76Z"/><path class="cls-1" d="M76.43,470a392.58,392.58,0,0,1,26.85-141.86c3.14-8.11,7.7-15.1,14.8-20.25A41,41,0,0,1,182.75,334a40.14,40.14,0,0,1-2.38,22.55,297.8,297.8,0,0,0-12.79,39.86,310.24,310.24,0,0,0-7.8,47.2,331.08,331.08,0,0,0-.38,48.89c1.38,22.43-15.55,40.39-35.44,43.07-19.34,2.61-40.25-9.61-45.36-31.24a54.67,54.67,0,0,1-1.29-9.88C76.89,486.31,76.7,478.16,76.43,470Z"/><path class="cls-2" d="M1604.21,448.86q47.76-43,105.51-64.31t125-21.27q48.27,0,86.36,15.75t64.57,43.85q26.52,28.1,40.69,66.93t14.17,85.05v340.2h-66.14q-20.47,0-31.25-5.76t-17.58-24.16L1914,850.49q-20.49,17.85-39.66,31.51a233.32,233.32,0,0,1-39.62,22.83,208.55,208.55,0,0,1-43.85,13.92,265.18,265.18,0,0,1-52.23,4.72q-35.71,0-65.11-9.45t-50.66-28.1q-21.25-18.63-32.81-46.45t-11.55-64.06q0-29.91,15.22-59.85t52.25-54.32q37-24.43,98.7-40.44t154.61-18.11V574.86q0-50.91-21.53-74.81t-62-23.89q-29.93,0-49.88,7.09a246.16,246.16,0,0,0-34.9,15.24q-15,8.13-28.1,15.21t-30.43,7.08q-15.24,0-25.47-7.61a69.41,69.41,0,0,1-17.06-18.11Zm295,239.92q-53,2.63-88.2,9.19T1755.13,715q-20.75,10.5-29.39,23.89a52.59,52.59,0,0,0-8.66,29.14q0,31.5,17.58,44.63t49.09,13.12q36.21,0,62.74-12.86t52.76-40.17Z"/><path class="cls-2" d="M2490.39,485.09Q2484.6,494,2478.58,498t-16.53,3.94a49.86,49.86,0,0,1-21.53-5.25q-11-5.25-24.69-11.28a263.45,263.45,0,0,0-31.23-11.3q-17.58-5.25-40.68-5.25-35.19,0-54.6,14.44t-19.43,38.06q0,16.29,11,27.32t29.14,19.15A355,355,0,0,0,2351.27,583q23.08,7.11,47.5,15.5a450,450,0,0,1,47.51,19.42,167.57,167.57,0,0,1,41.22,27.57,126.7,126.7,0,0,1,29.14,39.89q11,23.36,11,56.43,0,39.38-14.43,72.72A159,159,0,0,1,2471,872q-27.84,24.13-69.31,37.79t-95.55,13.66A309.9,309.9,0,0,1,2199,904.3a329.79,329.79,0,0,1-46.2-21.25,205.46,205.46,0,0,1-37.27-26.27l33.59-54.06a43,43,0,0,1,14.44-14.7q8.65-5.25,22.31-5.25a46.24,46.24,0,0,1,24.14,6.56q11,6.55,24.68,14.17A207.69,207.69,0,0,0,2267,817.67q18.63,6.57,46.47,6.57,21,0,36.22-4.72t24.67-12.86a51.13,51.13,0,0,0,13.91-18.38,52.81,52.81,0,0,0,4.47-21.26q0-17.87-11.28-29.14t-29.41-19.69A292.72,292.72,0,0,0,2310.32,703q-23.62-6.83-48.05-15.22a402.7,402.7,0,0,1-47.77-20A162.58,162.58,0,0,1,2173,638.66q-18.11-17.58-29.4-43.32t-11.28-62.48a158.24,158.24,0,0,1,13.12-63.78q13.13-30.19,39.38-53.28t65.36-36.75q39.09-13.65,90.56-13.66,57.75,0,105,18.91t77.7,49.34Z"/><path class="cls-2" d="M2755,444.66a321.47,321.47,0,0,1,34.65-32.8A224.62,224.62,0,0,1,2829,386.13a210.52,210.52,0,0,1,45.14-16.8,215.9,215.9,0,0,1,52.51-6.05q43.56,0,80.05,18.64T3069.46,436q26.25,35.44,40.94,86.89t14.7,117.6q0,60.9-16.53,112.62t-47,89.5a217.37,217.37,0,0,1-73.25,59.06q-42.81,21.26-95.29,21.27-44.1,0-74.81-13.13a187.57,187.57,0,0,1-54.86-35.7v215.78h-144.9V373.78h89.25q27.3,0,36.23,25.21Zm8.4,327.61q20.46,23.63,44.36,33.07a137.86,137.86,0,0,0,51.19,9.44q26.25,0,47.77-10t37-31.23q15.49-21.26,23.89-54.34t8.41-78.75q0-45.15-7.1-76.65T2949,512.92q-12.87-19.42-31.23-28.09t-40.94-8.67q-38.34,0-64.33,15T2763.38,535Z"/><path class="cls-2" d="M3384.46,220a79.53,79.53,0,0,1-7.36,34.12,94.7,94.7,0,0,1-19.68,27.83,89.53,89.53,0,0,1-28.88,18.89,91.63,91.63,0,0,1-35.44,6.83,85.13,85.13,0,0,1-33.86-6.83,88,88,0,0,1-28.09-18.89A92.74,92.74,0,0,1,3212,254.09,82.09,82.09,0,0,1,3204.9,220a84,84,0,0,1,7.09-34.39,92.07,92.07,0,0,1,19.16-28.09,88.21,88.21,0,0,1,28.09-18.9,85.64,85.64,0,0,1,33.86-6.82,92.18,92.18,0,0,1,35.44,6.82,89.72,89.72,0,0,1,28.88,18.9,94,94,0,0,1,19.68,28.09A81.35,81.35,0,0,1,3384.46,220Zm-17.33,153.81V915.06h-144.9V373.78Z"/><path class="cls-2" d="M3627,463q25.71-46.17,59.32-73t78.76-26.78q36.75,0,59.85,17.33l-9.46,107.11q-2.62,10.5-8.14,14.44t-14.95,3.93q-8.41,0-24.16-2.35a198.23,198.23,0,0,0-29.39-2.38q-20,0-35.45,5.78a88.79,88.79,0,0,0-27.56,16.27A117.1,117.1,0,0,0,3654,549.14a246.3,246.3,0,0,0-18.11,34.64V915.06H3491V373.78h85.58q22,0,30.45,7.88T3619.13,409Z"/><path class="cls-2" d="M3989.78,666.74q6.81,76.13,43.31,111.31t95.29,35.17q29.91,0,51.71-7.09a247.92,247.92,0,0,0,38.33-15.75q16.55-8.65,29.92-15.75t26.51-7.1q16.78,0,26.25,12.61l42,52.5A228.38,228.38,0,0,1,4292.18,877a272.7,272.7,0,0,1-57.75,27.83A307.68,307.68,0,0,1,4174.06,919a458.12,458.12,0,0,1-58.8,3.94q-56.72,0-105.8-18.64a240,240,0,0,1-85.58-55.13q-36.48-36.46-57.48-90.56t-21-125.47q0-55.12,18.11-103.95t52.25-85.05q34.13-36.22,82.94-57.48T4109,365.39q52,0,95.8,16.55t75.61,48q31.76,31.5,49.34,77.44t17.6,104.73a186.15,186.15,0,0,1-1.58,26.77q-1.59,10.5-5.25,16.81a19.17,19.17,0,0,1-10,8.66q-6.3,2.36-16.28,2.36Zm227.85-86.1a151.31,151.31,0,0,0-6-43,100.23,100.23,0,0,0-19.16-36.23,93,93,0,0,0-33.08-24.94q-20-9.18-47.76-9.18-52,0-81.39,29.4t-38.32,84Z"/></svg>