<svg id="Layer_1" data-name="Layer 1" xmlns="http://www.w3.org/2000/svg" viewBox="0 0 1401.6 1401.84"><defs><style>.cls-1{fill:#fff;}.cls-2{fill:#e8e7e1;}.cls-3{fill:#ac9b7e;}.cls-4{fill:#d8c8ae;}</style></defs><path class="cls-1" d="M1300.92,695.21v345.9a32.72,32.72,0,0,1-1.21,9.84,17,17,0,0,0-.63,2.83,24.1,24.1,0,0,1-5.63,12.26,23.08,23.08,0,0,1-4.39,4.33c-9.43,6.85-19.38,12.89-29.25,19.07a1280.84,1280.84,0,0,1-151.75,81.41,1057.86,1057.86,0,0,1-147.62,54c-22.93,6.46-46.09,11.93-69.33,17.13-15.28,3.4-30.65,6.31-46.09,8.86q-18.85,3.12-37.85,5.41c-12.13,1.48-24.26,2.76-36.4,3.72-10.77.86-21.58,1.39-32.37,2-18.7,1-37.42,1-56.14.68-15.24-.29-30.47-1.07-45.68-2.17-13.28-1-26.53-2.18-39.74-3.76-20.8-2.48-41.44-5.63-62-9.59-36.45-7-72.52-15.6-108.12-26.18A1059.78,1059.78,0,0,1,280.27,1165a1307.78,1307.78,0,0,1-161.61-90.24c-2.67-1.73-5.2-3.7-7.8-5.52a10.73,10.73,0,0,1-2.36-2.3c-4.7-6.07-4.6-6.07-6.54-13.62a54.7,54.7,0,0,1-1.68-13.95q.06-338.42,0-676.87a76,76,0,0,1,2-17.66,26.82,26.82,0,0,1,10.59-15.79,39.5,39.5,0,0,1,9.78-5.37c61.28-23.77,123-46.44,184.75-68.84Q405.12,219.44,503,184.18c60.61-22,121.05-44.43,181.13-67.77,5.06-2,10.4-2.77,15.67-4,1.54-.36,3,.28,4.49.59,8,1.64,15.74,4.26,23.48,6.87,67.54,22.71,134.72,46.45,201.78,70.54q99.43,35.72,198.82,71.49,75.87,27.15,152.18,52.74c2.6.86,4.62,2.43,6.87,3.76,4.33,2.6,6.93,6.71,9.65,10.67a7.17,7.17,0,0,1,.86,2.31c.75,2.95,1.43,5.92,2.17,8.87a32.07,32.07,0,0,1,.87,7.8Q1300.89,521.63,1300.92,695.21Z"/><path class="cls-2" d="M581.47,630.46v-299c0-1.22,0-2.45-.11-3.66v0a1.25,1.25,0,0,0-1.46-1,11.2,11.2,0,0,0-1.15.41c-3.91,1.55-7.83,3.07-11.72,4.65-16.46,6.69-32.94,13.29-49.59,19.51-11,4.15-22,8.51-33,12.66-12.57,4.72-25.14,9.41-37.79,13.91-8.94,3.18-17.82,6.53-26.77,9.72q-19.35,6.94-38.63,14-16.63,6-33.24,12.14-17.58,6.41-35.06,13.1c-9.75,3.74-19.55,7.33-29.27,11.12q-16.33,6.36-32.49,13c-4.39,1.8-3.63,1.68-3.69,5.29V872.44c.08,2.53.4,2.75,2.55,1.79.85-.37,1.7-.86,2.55-1.22l31.25-12.77c6.77-2.79,13.47-5.66,20.28-8.45,7.14-2.95,14.32-5.81,21.48-8.75,5.77-2.35,11.52-4.78,17.28-7.14,7.91-3.25,15.83-6.46,23.73-9.71,6-2.48,12-5,18-7.47,2.48-1,5-2,7.45-3h0l84.85-35a22.18,22.18,0,0,0,7.17-1.71c5.73-2.51,11.64-4.61,17.34-7.21,1.79-.81,5-1.32,4.59-3.24l75.48-31.67V630.46Z"/><path class="cls-3" d="M1255.83,1042.48c-6.08-2.68-12.2-5.29-18.3-7.92l-22.79-9.8q-9.54-4.11-19.06-8.21-10.46-4.5-20.94-8.95c-4.75-2-9.5-4-14.24-6q-9.74-4.11-19.43-8.37c-7.11-3.09-14.17-6.23-21.27-9.29s-14-6-21-8.92c-4.74-2-9.5-4-14.23-6-5-2.16-9.93-4.36-14.9-6.54-1.25-1.61-3.06-2.16-4.83-2.86-35.16-13.91-70.43-27.57-105.62-41.38Q901.1,895.49,843,872.63c-12.51-4.71-25-9.57-37.52-14.13-1.5-.54-3.1-1.84-4.71-.24L697.94,819.77l-27.23,11c-20.26,0-40.51,0-60.76,0q-91.25-.06-182.48,0c-2.35,0-4.94-.77-7,1.24,1.31,1.06,2.86.64,4.32.64h239c-.08,1-.7,1.14-1.14,1.33q-17.35,7.05-34.71,14.05-26.62,10.67-53.25,21.39c-12,4.82-23.92,9.71-35.83,14.53-7.8,3.16-15.63,6.22-23.44,9.36-9.06,3.67-18.08,7.4-27.14,11.06-7.55,3.08-15.14,6-22.69,9-13.33,5.35-26.64,10.79-40,16.16q-26.81,10.75-53.6,21.55c-13.24,5.32-26.39,10.73-39.61,16.05q-28.32,11.4-56.66,22.72c-14.84,6-29.66,12.1-44.5,18.06q-25.08,10.13-50.2,20.2c-10.07,4-20.2,7.94-30.23,12.06-2.72,1.13-5.78,1.66-8,3.83,1.46,1,2.9,2,4.38,3q29.81,19.28,60.58,37,23.16,13.34,46.86,25.69c15.09,7.81,30.31,15.39,45.72,22.59,15,7,30.21,13.77,45.52,20.08,29.32,12.1,59,23,89.33,32.33q27.44,8.51,55.35,15.31,27.33,6.64,55,11.7c12.69,2.31,25.45,4.26,38.21,6.11,7.52,1.09,15.12,1.7,22.65,2.71,3.14.41,6.26.64,9.36.93,4.74.45,9.46,1,14.2,1.37,5.28.42,10.59.56,15.87,1,8.27.77,16.56,1.22,24.84,1.29,12.77.13,25.58.89,38.34.42,11.82-.44,23.67-.18,35.48-1,6.53-.46,13-.71,19.57-1.05.37,0,.81-.13,1.22-.13q6.9-.66,13.79-1.3c3.93-.34,7.86-.59,11.79-1,5.93-.67,11.83-1.44,17.78-2.2,6.87-.88,13.79-1.63,20.6-2.71,11.26-1.79,22.53-3.62,33.72-5.75,11.74-2.24,23.45-4.66,35.09-7.34q38-8.71,75-20.56,41-13,80.81-29.47,25.65-10.56,50.8-22.37c14.15-6.66,28.18-13.54,42-20.79,14.46-7.56,28.83-15.31,43-23.39q34.9-19.93,68.64-41.8C1258.33,1043.08,1256.85,1042.94,1255.83,1042.48Z"/><path class="cls-4" d="M1259.26,356.63c.08-1.76-.71-2.64-2.41-3.2-6.19-2-12.32-4.24-18.48-6.36q-16.75-5.69-33.53-11.45-20.22-6.93-40.41-14-14.81-5.16-29.57-10.44-24.18-8.56-48.35-17.18-15.72-5.64-31.42-11.31l-50.2-18.06L964.28,250q-19.11-6.94-38.28-13.84l-43.74-15.64q-18.19-6.53-36.45-13-22.27-7.87-44.58-15.64-20-7-40-13.87-14.46-5-28.9-9.83c-8.51-2.88-17-5.77-25.52-8.57-2-.66-4.09-2-6.2-1.7s-4.1,1.36-6.14,2.1l-.39.14q-14.82,5.72-29.66,11.38-12.77,4.88-25.52,9.7Q622,187.7,605,194c-8.13,3.07-16.3,6-24.45,9l-30.2,11.06L531.63,221q-16.07,5.89-32.14,11.74c-7.14,2.61-14.31,5.16-21.46,7.71q-18,6.54-36,13c-7.66,2.77-15.32,5.5-23,8.26-11.61,4.21-23.22,8.46-34.83,12.65-8,2.88-15.9,5.65-23.82,8.51l-36,13.06q-10.33,3.74-20.66,7.51l-30.22,11.06c-6.22,2.29-12.48,4.56-18.71,6.87l-32.06,11.91c-9.67,3.61-19.35,7.17-29,10.84-15.36,5.84-30.71,11.68-46,17.75-6.59,2.63-5.74.78-5.74,8.27V1039.1c0,1.22,0,2.44,0,3.66a1.53,1.53,0,0,0,.78,1.34,19,19,0,0,0,5.85-1.74q18.7-7.53,37.43-15.1L340.59,965Q417.8,933.91,495,902.81q81.83-32.85,163.5-65.94c2.09-.85,5.8-1.12,5.77-3.49l33.64-13.61,143.32,53.69-3-2.64,4.5,2.7-.51-157.77c.18-.1.36-.19.54-.31a3.86,3.86,0,0,0,1-2.6c.14-9.47.62-18.94-.27-28.41a2.69,2.69,0,0,0-1.42-1.31l-.32-100.2a5.79,5.79,0,0,0,1.93-3.42,48.45,48.45,0,0,0,.2-6.92v-153c0-5.46.14-5.57,5.18-3.68,11.06,4.19,22.12,8.51,33.18,12.7,59.31,22.46,118.94,44.06,178.3,66.35,7.9,3,7.9,3,7.9,11.28V953.86a34.51,34.51,0,0,0,.37,7.73c.69,2.08,2.49,2.79,4.25,3.55l13.88,6q85.68,36.78,171.3,73.65a1.41,1.41,0,0,0,.91-1.23c0-1.09,0-2.17,0-3.26V359.48C1259.26,358.53,1259.21,357.58,1259.26,356.63ZM581.48,692.8a3.94,3.94,0,0,0-.88,1c-1,6.38-.51,12.8-.31,19.21a3.42,3.42,0,0,0,1.15,2.48l0,0v21.35L398.91,812.76a1.81,1.81,0,0,0-2.22-.48c-1.5.63-2.93,1.44-4.45,2.06-45.83,18.76-91.57,37.75-137.38,56.56-6.3,2.56-6.3,2.56-6.3-4.25v-406c0-7.34,0-7.29,6.8-10,56-22.75,112.86-43.1,169.6-63.73,49.64-17.95,99.15-36.26,148.07-56.15,7.11-2.88,7.11-2.84,7.11,5V633.56c0,2.41-.42,4.9.78,7.21a3.64,3.64,0,0,0,.56.43Z"/><path class="cls-2" d="M1069.73,958.76V498.93a2.56,2.56,0,0,0-1.71-2.51c-1.89-.72-3.81-1.4-5.71-2.12-7.62-2.86-15.19-5.75-22.84-8.58-6.1-2.27-12.24-4.44-18.34-6.72-8.38-3.12-16.74-6.34-25.13-9.45s-16.81-6.11-25.21-9.18c-3.32-1.21-6.61-2.46-9.91-3.69-5.59-2.1-11.16-4.22-16.76-6.29-8.13-3.05-16.3-5.95-24.43-9Q902,434.7,884.33,428l-37.6-14.38a26,26,0,0,0-2.72-.85.81.81,0,0,0-.31-.06.85.85,0,0,0-.85.85c-.12,1.35-.12,2.71-.12,4.07v136l-.14,214.62c-.94.92-1.15,2.54-1.15,5.4v94.5c0,1.9-.08,3.84,1.32,5.4,2.5,1.07,4.94,2.2,7.49,3.18q23.34,9.07,46.64,18.19c10.86,4.25,21.7,8.58,32.56,12.83,15.54,6.08,31.1,12.1,46.64,18.18,10.87,4.25,21.7,8.58,32.56,12.83q23.5,9.18,47,18.33c4.69,1.82,9.37,3.58,14,5.36C1069.74,961.21,1069.79,960,1069.73,958.76Z"/></svg>