<svg id="Layer_1" data-name="Layer 1" xmlns="http://www.w3.org/2000/svg" viewBox="0 0 1401.6 1401.84"><defs><style>.cls-1{fill:#fff;}.cls-2{fill:#e8e7e1;}.cls-3{fill:#ac9b7e;}.cls-4{fill:#d8c8ae;}</style></defs><path class="cls-1" d="M1227.4,707.64v303.43a28.84,28.84,0,0,1-1.06,8.62,15.43,15.43,0,0,0-.56,2.49,21.09,21.09,0,0,1-4.93,10.75,20.38,20.38,0,0,1-3.85,3.8c-8.27,6-17,11.31-25.66,16.73a1123.5,1123.5,0,0,1-133.12,71.41,928.1,928.1,0,0,1-129.49,47.34c-20.11,5.67-40.43,10.47-60.81,15-13.41,3-26.89,5.53-40.43,7.77q-16.54,2.74-33.2,4.75c-10.65,1.3-21.29,2.42-31.93,3.26-9.45.76-18.94,1.22-28.4,1.73-16.41.88-32.83.92-49.25.6-13.37-.26-26.73-.94-40.07-1.9-11.65-.85-23.27-1.92-34.86-3.3-18.24-2.18-36.35-5-54.38-8.42-32-6.17-63.62-13.68-94.84-23a930,930,0,0,1-128.48-49,1148.53,1148.53,0,0,1-141.76-79.16c-2.35-1.52-4.56-3.25-6.85-4.84a9.67,9.67,0,0,1-2.06-2c-4.12-5.32-4-5.32-5.74-11.94a48.54,48.54,0,0,1-1.48-12.24q.06-296.86,0-593.75a67.21,67.21,0,0,1,1.75-15.49,23.57,23.57,0,0,1,9.29-13.86,34.78,34.78,0,0,1,8.58-4.7C247.56,360.9,301.68,341,355.87,321.37q85.74-31.08,171.55-62c53.17-19.28,106.19-39,158.89-59.45,4.44-1.71,9.12-2.43,13.74-3.51,1.36-.31,2.64.25,3.94.52a174.05,174.05,0,0,1,20.6,6c59.24,19.92,118.18,40.75,177,61.87q87.23,31.33,174.4,62.72,66.55,23.81,133.5,46.26c2.28.76,4,2.13,6,3.3,3.81,2.28,6.09,5.89,8.47,9.36a6.16,6.16,0,0,1,.76,2c.65,2.58,1.25,5.19,1.9,7.78a28.14,28.14,0,0,1,.76,6.84Q1227.39,555.38,1227.4,707.64Z"/><path class="cls-2" d="M599,652.12V396.57c0-1,0-2.09-.09-3.13v0a1.08,1.08,0,0,0-1.25-.86c-.33.1-.66.22-1,.35-3.34,1.32-6.69,2.63-10,4-14.07,5.71-28.16,11.36-42.39,16.67-9.44,3.55-18.8,7.28-28.25,10.82-10.74,4-21.49,8-32.3,11.89-7.64,2.72-15.23,5.58-22.87,8.31q-16.55,5.94-33,12-14.2,5.16-28.41,10.37-15,5.49-30,11.21c-8.33,3.19-16.71,6.26-25,9.5q-14,5.43-27.77,11.1c-3.75,1.54-3.1,1.44-3.15,4.52V859c.07,2.16.34,2.35,2.18,1.52.73-.32,1.45-.73,2.18-1l26.71-10.91c5.79-2.39,11.52-4.84,17.33-7.23,6.11-2.51,12.25-5,18.36-7.47,4.93-2,9.85-4.09,14.78-6.11,6.75-2.78,13.52-5.52,20.28-8.3,5.14-2.11,10.27-4.27,15.41-6.38,2.12-.88,4.26-1.69,6.38-2.57h0l72.52-29.91a19.09,19.09,0,0,0,6.13-1.47c4.9-2.14,9.95-3.94,14.82-6.15,1.53-.7,4.27-1.14,3.93-2.78L599,743.09v-91Z"/><path class="cls-3" d="M1175.38,1004.3c-5.2-2.3-10.43-4.52-15.64-6.77l-19.48-8.39c-5.43-2.33-10.86-4.69-16.29-7q-8.94-3.84-17.9-7.64c-4.06-1.73-8.13-3.41-12.18-5.15q-8.31-3.51-16.6-7.15c-6.08-2.64-12.11-5.32-18.18-7.94s-11.93-5.09-17.91-7.63c-4-1.72-8.12-3.42-12.16-5.16-4.26-1.84-8.49-3.72-12.74-5.59-1.07-1.37-2.62-1.84-4.13-2.44-30-11.9-60.19-23.57-90.27-35.38q-49.73-19.38-99.37-38.93c-10.69-4-21.33-8.18-32.07-12.08-1.28-.46-2.65-1.58-4-.21l-87.92-32.9-23.27,9.42c-17.31,0-34.62,0-51.93,0q-78-.06-156,0c-2,0-4.22-.66-6,1.06,1.12.91,2.45.54,3.69.54H669.35c-.06.85-.6,1-1,1.14q-14.83,6-29.67,12Q616,847.25,593.2,856.42c-10.22,4.11-20.45,8.3-30.63,12.42-6.67,2.7-13.37,5.31-20,8-7.75,3.13-15.46,6.32-23.21,9.45-6.45,2.63-12.93,5.12-19.39,7.72-11.39,4.58-22.77,9.23-34.17,13.82Q442.87,917,420,926.25c-11.32,4.55-22.56,9.17-33.86,13.72q-24.21,9.74-48.43,19.42c-12.69,5.12-25.35,10.34-38,15.43q-21.44,8.65-42.9,17.27c-8.61,3.45-17.27,6.78-25.85,10.31-2.32,1-4.93,1.42-6.84,3.27,1.24.86,2.47,1.74,3.74,2.56q25.47,16.49,51.79,31.62c13.19,7.6,26.52,15,40.05,22,12.9,6.68,25.9,13.15,39.07,19.31,12.85,6,25.82,11.77,38.91,17.16,25.06,10.34,50.46,19.63,76.35,27.63q23.46,7.27,47.32,13.09,23.36,5.68,47,10c10.84,2,21.74,3.64,32.65,5.23,6.43.93,12.92,1.45,19.37,2.31,2.68.36,5.34.55,8,.8,4.05.38,8.09.85,12.14,1.17,4.52.36,9.05.48,13.56.9,7.07.65,14.16,1,21.23,1.1,10.93.11,21.87.76,32.78.36,10.1-.38,20.23-.16,30.33-.88,5.57-.4,11.15-.61,16.72-.9.32,0,.7-.11,1.05-.11,3.92-.38,7.86-.75,11.78-1.11,3.36-.3,6.72-.51,10.08-.89,5.07-.56,10.11-1.23,15.2-1.87,5.87-.76,11.79-1.4,17.6-2.32,9.63-1.53,19.26-3.09,28.83-4.92,10-1.91,20-4,30-6.27Q902,1134.15,933.7,1124q35.07-11.15,69.08-25.2,21.91-9,43.41-19.11c12.1-5.7,24.09-11.58,35.94-17.77,12.36-6.47,24.64-13.09,36.76-20q29.83-17,58.67-35.73C1177.52,1004.81,1176.25,1004.68,1175.38,1004.3Z"/><path class="cls-4" d="M1178.31,418.07c.07-1.51-.61-2.26-2.06-2.74-5.29-1.73-10.53-3.63-15.79-5.44q-14.32-4.86-28.67-9.78-17.28-5.92-34.54-11.95-12.64-4.41-25.27-8.92-20.67-7.32-41.33-14.69l-26.86-9.66-42.9-15.44-34.71-12.52Q909.85,321,893.46,315.1l-37.39-13.36q-15.55-5.58-31.15-11.08-19-6.74-38.11-13.37-17.05-6-34.17-11.86-12.36-4.26-24.7-8.4c-7.27-2.46-14.55-4.93-21.82-7.33-1.74-.56-3.49-1.69-5.3-1.45a26.09,26.09,0,0,0-5.25,1.8l-.33.12q-12.66,4.88-25.35,9.72-10.9,4.17-21.82,8.3-14.49,5.49-29,10.91c-7,2.62-13.94,5.15-20.9,7.71l-25.82,9.45-16,5.87q-13.73,5-27.47,10c-6.1,2.22-12.23,4.4-18.34,6.58q-15.37,5.6-30.77,11.15L460.16,337c-9.93,3.6-19.84,7.23-29.77,10.81-6.8,2.46-13.59,4.83-20.36,7.28q-15.37,5.56-30.76,11.16-8.83,3.19-17.66,6.42l-25.83,9.45c-5.32,2-10.67,3.9-16,5.88l-27.4,10.18c-8.26,3.08-16.54,6.12-24.78,9.26-13.12,5-26.25,10-39.3,15.17-5.63,2.24-4.91.67-4.91,7.07V1001.4c0,1.05,0,2.09,0,3.14a1.32,1.32,0,0,0,.67,1.14,16.16,16.16,0,0,0,5-1.49q16-6.44,32-12.9l132-53.2,132-53.18Q595,856.83,664.84,828.55c1.78-.73,4.95-1,4.93-3l28.75-11.64L821,859.82l-2.58-2.25,3.85,2.31L821.86,725a3.77,3.77,0,0,0,.47-.27,3.25,3.25,0,0,0,.88-2.21c.12-8.1.54-16.2-.23-24.29a2.3,2.3,0,0,0-1.21-1.12l-.28-85.64a4.94,4.94,0,0,0,1.66-2.93,43.18,43.18,0,0,0,.17-5.91V471.85c0-4.67.12-4.77,4.42-3.15,9.46,3.58,18.91,7.28,28.36,10.85,50.7,19.21,101.67,37.67,152.41,56.72,6.75,2.54,6.75,2.56,6.75,9.64V928.54a29.83,29.83,0,0,0,.31,6.61c.6,1.79,2.13,2.39,3.64,3l11.87,5.09q73.23,31.43,146.41,62.94a1.18,1.18,0,0,0,.78-1c0-.93,0-1.86,0-2.79V420.5C1178.31,419.69,1178.26,418.87,1178.31,418.07ZM599,705.41a3.31,3.31,0,0,0-.75.88c-.89,5.45-.44,10.94-.27,16.41a2.94,2.94,0,0,0,1,2.13h0v18.25l-156,64.85a1.57,1.57,0,0,0-1.9-.41c-1.28.54-2.5,1.23-3.8,1.76-39.18,16-78.27,32.27-117.42,48.35-5.39,2.18-5.39,2.18-5.39-3.64V507c0-6.28,0-6.24,5.81-8.59,47.86-19.44,96.47-36.84,145-54.47,42.43-15.34,84.75-31,126.56-48,6.08-2.47,6.08-2.43,6.08,4.23v254.6c0,2.06-.37,4.19.66,6.16a3.33,3.33,0,0,0,.48.38Z"/><path class="cls-2" d="M1016.31,932.73v-393a2.18,2.18,0,0,0-1.46-2.15c-1.62-.62-3.25-1.2-4.88-1.81-6.51-2.44-13-4.91-19.53-7.34-5.21-1.94-10.45-3.79-15.67-5.74-7.17-2.67-14.31-5.42-21.48-8.07s-14.36-5.23-21.55-7.85c-2.83-1-5.65-2.11-8.47-3.16-4.78-1.79-9.54-3.61-14.32-5.37-7-2.61-13.94-5.09-20.88-7.7Q873,484.79,857.84,479l-32.14-12.3c-.76-.28-1.54-.52-2.33-.73a.73.73,0,0,0-.25,0,.71.71,0,0,0-.73.72c-.11,1.16-.11,2.32-.11,3.48V586.43l-.12,183.45c-.8.78-1,2.17-1,4.62v80.77c0,1.62-.07,3.28,1.13,4.62,2.13.91,4.22,1.87,6.4,2.72q19.95,7.74,39.86,15.54c9.29,3.63,18.55,7.33,27.84,11q19.92,7.78,39.86,15.54c9.29,3.63,18.55,7.33,27.84,11q20.08,7.85,40.19,15.67c4,1.56,8,3.06,12,4.58C1016.32,934.83,1016.37,933.77,1016.31,932.73Z"/></svg>