<svg id="Layer_1" data-name="Layer 1" xmlns="http://www.w3.org/2000/svg" viewBox="0 0 1401.6 1401.84"><defs><style>.cls-1{fill:#fff;}.cls-2{fill:#e8e7e1;}.cls-3{fill:#ac9b7e;}.cls-4{fill:#d8c8ae;}</style></defs><path class="cls-1" d="M1136.64,706.48V957.59a23.7,23.7,0,0,1-.88,7.15,12.94,12.94,0,0,0-.46,2,17.39,17.39,0,0,1-4.08,8.9,16.64,16.64,0,0,1-3.19,3.14c-6.84,5-14.07,9.36-21.23,13.85a929,929,0,0,1-110.17,59.1A768.66,768.66,0,0,1,889.47,1091c-16.65,4.69-33.46,8.66-50.34,12.43-11.09,2.47-22.25,4.58-33.46,6.44q-13.68,2.26-27.47,3.92c-8.81,1.08-17.62,2-26.43,2.7-7.82.63-15.66,1-23.5,1.43-13.57.73-27.16.76-40.75.5-11.07-.21-22.13-.77-33.17-1.57-9.64-.7-19.26-1.59-28.85-2.73-15.1-1.8-30.08-4.09-45-7-26.46-5.1-52.65-11.32-78.49-19a769.48,769.48,0,0,1-106.33-40.56A950,950,0,0,1,278.36,982c-1.94-1.25-3.78-2.68-5.66-4a8.06,8.06,0,0,1-1.72-1.68c-3.41-4.4-3.34-4.4-4.75-9.88A40.71,40.71,0,0,1,265,956.35q0-245.69,0-491.39a56,56,0,0,1,1.45-12.82,19.5,19.5,0,0,1,7.69-11.46,28.72,28.72,0,0,1,7.1-3.9c44.48-17.25,89.27-33.71,134.12-50q71-25.72,142-51.32c44-16,87.88-32.25,131.5-49.2,3.67-1.42,7.55-2,11.37-2.9a7.56,7.56,0,0,1,3.26.42,146.57,146.57,0,0,1,17,5c49,16.49,97.8,33.73,146.49,51.21q72.18,25.94,144.33,51.9,55.08,19.71,110.47,38.29a25.57,25.57,0,0,1,5,2.73c3.15,1.88,5,4.87,7,7.75a5.19,5.19,0,0,1,.63,1.67c.54,2.14,1,4.3,1.57,6.44a23.53,23.53,0,0,1,.63,5.67Q1136.63,580.46,1136.64,706.48Z"/><path class="cls-2" d="M619.38,661.9V457.57c0-.84,0-1.68-.08-2.51v0a.86.86,0,0,0-1-.69,7.41,7.41,0,0,0-.79.28c-2.67,1.06-5.35,2.1-8,3.18-11.25,4.57-22.52,9.08-33.9,13.33-7.55,2.84-15,5.82-22.59,8.65-8.59,3.23-17.18,6.43-25.83,9.51-6.11,2.17-12.18,4.47-18.29,6.65-8.82,3.16-17.6,6.36-26.41,9.55l-22.71,8.3q-12,4.38-24,9c-6.66,2.55-13.36,5-20,7.6q-11.16,4.35-22.2,8.87c-3,1.23-2.49,1.15-2.53,3.62V827.28c.06,1.73.28,1.88,1.75,1.23.58-.26,1.16-.59,1.74-.84L415.93,819c4.63-1.91,9.21-3.87,13.86-5.78,4.88-2,9.79-4,14.68-6,3.94-1.61,7.87-3.27,11.81-4.88l16.22-6.64,12.33-5.1c1.69-.7,3.4-1.35,5.09-2.05h0l58-23.92a15.34,15.34,0,0,0,4.9-1.17c3.92-1.72,8-3.15,11.85-4.93,1.22-.55,3.42-.9,3.14-2.22l51.58-21.64V661.9Z"/><path class="cls-3" d="M1080.27,943.5c-4.16-1.84-8.34-3.62-12.51-5.41l-15.57-6.71c-4.35-1.86-8.68-3.75-13-5.61q-7.14-3.07-14.31-6.11c-3.25-1.38-6.5-2.72-9.73-4.11q-6.66-2.82-13.28-5.72c-4.86-2.11-9.68-4.26-14.54-6.35s-9.54-4.07-14.32-6.1c-3.24-1.38-6.49-2.73-9.72-4.13-3.41-1.47-6.79-3-10.19-4.46a7,7,0,0,0-3.3-2c-24-9.51-48.13-18.84-72.18-28.28Q837.84,843,798.14,827.41c-8.55-3.22-17.06-6.54-25.65-9.65-1-.37-2.12-1.26-3.22-.17L699,791.28l-18.61,7.54c-13.84,0-27.68,0-41.53,0q-62.36,0-124.71,0c-1.61,0-3.38-.53-4.77.84.9.73,2,.44,3,.44H675.65c0,.68-.47.78-.78.91q-11.85,4.83-23.72,9.6-18.2,7.29-36.39,14.63c-8.17,3.29-16.35,6.63-24.49,9.93-5.33,2.15-10.68,4.24-16,6.39-6.19,2.51-12.36,5.06-18.55,7.56-5.16,2.11-10.34,4.09-15.51,6.18-9.11,3.65-18.21,7.37-27.32,11q-18.31,7.35-36.63,14.73c-9.05,3.64-18,7.34-27.07,11q-19.35,7.79-38.73,15.53c-10.14,4.09-20.27,8.27-30.41,12.34q-17.14,6.92-34.31,13.81c-6.88,2.76-13.81,5.42-20.66,8.24-1.86.77-3.95,1.14-5.47,2.62,1,.68,2,1.39,3,2Q343,959.83,364,971.92q15.84,9.12,32,17.56,15.47,8,31.24,15.45c10.28,4.79,20.65,9.4,31.12,13.72,20,8.27,40.34,15.7,61,22.09q18.76,5.82,37.84,10.47,18.68,4.53,37.57,8c8.67,1.58,17.39,2.91,26.11,4.18,5.14.75,10.33,1.16,15.48,1.85,2.15.29,4.28.44,6.4.64,3.24.3,6.46.68,9.7.94,3.61.28,7.24.38,10.85.71,5.65.52,11.32.83,17,.89,8.74.08,17.49.6,26.21.28,8.08-.3,16.17-.12,24.25-.7,4.46-.32,8.92-.49,13.37-.72.26,0,.56-.09.84-.09l9.42-.89c2.69-.23,5.38-.4,8.06-.7,4.06-.46,8.08-1,12.15-1.5,4.7-.61,9.43-1.12,14.08-1.86,7.7-1.22,15.4-2.47,23-3.93,8-1.53,16-3.18,24-5q25.93-6,51.28-14,28.05-8.92,55.24-20.15,17.52-7.22,34.71-15.29c9.67-4.55,19.27-9.25,28.74-14.21,9.88-5.16,19.7-10.46,29.39-16Q1059,960,1082,945C1082,943.91,1081,943.81,1080.27,943.5Z"/><path class="cls-4" d="M1082.61,474.75a2,2,0,0,0-1.64-2.18c-4.24-1.39-8.42-2.9-12.63-4.35q-11.46-3.9-22.92-7.83-13.82-4.74-27.62-9.55c-6.74-2.35-13.48-4.75-20.21-7.13q-16.51-5.86-33-11.75l-21.48-7.73-34.3-12.34-27.76-10q-13.07-4.74-26.16-9.46L825,381.74q-12.45-4.47-24.92-8.86-15.22-5.38-30.46-10.69-13.65-4.77-27.33-9.48-9.88-3.42-19.75-6.72c-5.82-2-11.63-3.94-17.44-5.86-1.4-.45-2.8-1.35-4.24-1.16a21.47,21.47,0,0,0-4.2,1.43l-.26.1q-10.14,3.9-20.28,7.78-8.72,3.33-17.44,6.63-11.58,4.39-23.19,8.72c-5.55,2.1-11.14,4.12-16.71,6.17l-20.64,7.56-12.79,4.69q-11,4-22,8-7.32,2.67-14.67,5.27-12.28,4.47-24.6,8.92l-15.69,5.64q-11.91,4.32-23.81,8.65c-5.43,2-10.86,3.86-16.28,5.81l-24.59,8.93q-7.06,2.55-14.12,5.13L408.93,446c-4.25,1.56-8.53,3.11-12.79,4.7l-21.91,8.14c-6.61,2.46-13.22,4.89-19.81,7.4-10.5,4-21,8-31.43,12.13-4.5,1.8-3.92.54-3.92,5.65V941.18c0,.84,0,1.67,0,2.51a1,1,0,0,0,.53.91,12.74,12.74,0,0,0,4-1.19q12.78-5.13,25.58-10.31l105.54-42.54L560.3,848Q616.22,825.59,672,803c1.43-.58,4-.76,4-2.38l23-9.31,98,36.7-2.07-1.8L798,828l-.35-107.83A2.71,2.71,0,0,0,798,720a2.62,2.62,0,0,0,.71-1.78c.09-6.47.43-12.94-.18-19.41a1.91,1.91,0,0,0-1-.9l-.22-68.48a4,4,0,0,0,1.32-2.34,33.94,33.94,0,0,0,.13-4.73V517.75c0-3.73.1-3.8,3.54-2.51,7.56,2.86,15.12,5.82,22.68,8.68,40.54,15.35,81.29,30.12,121.86,45.35,5.4,2,5.4,2,5.4,7.71V882.93a23.92,23.92,0,0,0,.25,5.28c.48,1.43,1.7,1.91,2.91,2.43l9.49,4.07Q1023.44,919.84,1082,945a1,1,0,0,0,.62-.84c0-.74,0-1.49,0-2.23V476.7C1082.61,476.05,1082.58,475.4,1082.61,474.75ZM619.38,704.51a2.82,2.82,0,0,0-.6.7c-.7,4.36-.34,8.75-.21,13.13a2.32,2.32,0,0,0,.79,1.7h0v14.59L494.61,786.5a1.22,1.22,0,0,0-1.52-.33c-1,.43-2,1-3,1.4-31.32,12.82-62.58,25.8-93.89,38.66-4.31,1.75-4.31,1.75-4.31-2.9V545.85c0-5,0-5,4.65-6.86,38.27-15.55,77.13-29.46,115.91-43.56,33.93-12.26,67.77-24.78,101.2-38.37,4.86-2,4.86-1.94,4.86,3.38V664c0,1.65-.29,3.35.53,4.93a3.2,3.2,0,0,0,.38.29Z"/><path class="cls-2" d="M953.08,886.28V572a1.75,1.75,0,0,0-1.16-1.72L948,568.84c-5.21-2-10.38-3.93-15.61-5.86-4.17-1.56-8.36-3-12.53-4.6-5.74-2.13-11.45-4.33-17.18-6.45s-11.49-4.18-17.23-6.28c-2.27-.82-4.52-1.68-6.77-2.52-3.82-1.43-7.63-2.89-11.46-4.3-5.56-2.08-11.14-4.06-16.69-6.15q-12.09-4.57-24.17-9.18l-25.7-9.83c-.61-.22-1.23-.42-1.86-.58a.78.78,0,0,0-.21,0,.58.58,0,0,0-.58.58c-.08.93-.08,1.86-.08,2.79v93l-.1,146.68c-.64.63-.79,1.74-.79,3.69v64.59c0,1.29,0,2.62.91,3.69,1.7.73,3.37,1.5,5.12,2.17L835,842.63c7.43,2.91,14.83,5.86,22.26,8.77q15.93,6.23,31.87,12.43c7.43,2.9,14.83,5.86,22.26,8.76q16.06,6.28,32.13,12.53c3.21,1.25,6.4,2.45,9.6,3.67C953.09,888,953.12,887.11,953.08,886.28Z"/></svg>