<svg id="Layer_1" data-name="Layer 1" xmlns="http://www.w3.org/2000/svg" viewBox="0 0 1401.6 1401.84"><defs><style>.cls-1{fill:#fff;}.cls-2{fill:#e8e7e1;}.cls-3{fill:#ac9b7e;}.cls-4{fill:#d8c8ae;}</style></defs><path class="cls-1" d="M1017.2,705V887.27a17.4,17.4,0,0,1-.63,5.18,8.57,8.57,0,0,0-.34,1.5,12.68,12.68,0,0,1-3,6.45,12.27,12.27,0,0,1-2.32,2.29c-5,3.61-10.21,6.79-15.42,10a673.71,673.71,0,0,1-80,42.91,558.62,558.62,0,0,1-77.8,28.44c-12.08,3.41-24.29,6.29-36.54,9-8.05,1.79-16.16,3.32-24.29,4.67q-9.95,1.65-19.95,2.85c-6.4.78-12.79,1.45-19.19,2-5.67.46-11.37.74-17.06,1-9.85.53-19.72.55-29.59.36-8-.16-16.06-.56-24.07-1.14-7-.51-14-1.15-20.95-2-11-1.3-21.84-3-32.67-5-19.21-3.71-38.23-8.22-57-13.8a558.83,558.83,0,0,1-77.19-29.44A689.52,689.52,0,0,1,394.08,905c-1.41-.92-2.74-1.95-4.11-2.91a5.74,5.74,0,0,1-1.24-1.22c-2.48-3.19-2.43-3.19-3.45-7.17a29,29,0,0,1-.89-7.36q0-178.36,0-356.75a40.59,40.59,0,0,1,1.05-9.31A14.15,14.15,0,0,1,391,512a21,21,0,0,1,5.15-2.83c32.3-12.53,64.81-24.47,97.38-36.28q51.49-18.67,103.06-37.26c32-11.58,63.81-23.41,95.47-35.71a58.49,58.49,0,0,1,8.26-2.11,5.49,5.49,0,0,1,2.37.31,103,103,0,0,1,12.37,3.62c35.6,12,71,24.48,106.35,37.18q52.41,18.83,104.79,37.68,40,14.3,80.21,27.79a19.75,19.75,0,0,1,3.62,2c2.28,1.37,3.66,3.54,5.08,5.63a3.62,3.62,0,0,1,.46,1.22c.39,1.55.76,3.12,1.14,4.67a16.8,16.8,0,0,1,.46,4.12Q1017.19,613.48,1017.2,705Z"/><path class="cls-2" d="M643.79,673.61v-143c0-.58,0-1.17,0-1.75h0a.61.61,0,0,0-.71-.49c-.18.06-.37.12-.55.2-1.86.74-3.74,1.47-5.6,2.23-7.87,3.19-15.76,6.35-23.72,9.33-5.29,2-10.52,4.07-15.81,6-6,2.26-12,4.5-18.08,6.66-4.28,1.52-8.52,3.12-12.8,4.65-6.18,2.21-12.32,4.45-18.49,6.69L532.09,570q-8.42,3.07-16.77,6.27c-4.67,1.79-9.36,3.51-14,5.32q-7.8,3-15.54,6.21c-2.1.87-1.74.81-1.76,2.53V789.36c0,1.21.19,1.32,1.22.86.4-.18.81-.41,1.22-.59l14.94-6.1c3.24-1.34,6.45-2.71,9.71-4s6.85-2.78,10.27-4.18c2.76-1.13,5.51-2.29,8.27-3.42L541,767.24c2.88-1.19,5.75-2.39,8.63-3.57,1.18-.49,2.38-.95,3.56-1.44h0l40.59-16.74a10.69,10.69,0,0,0,3.43-.82c2.74-1.2,5.57-2.21,8.29-3.45.86-.39,2.4-.63,2.2-1.55l36.1-15.15V673.61Z"/><path class="cls-3" d="M966.37,870.7c-2.91-1.28-5.83-2.53-8.75-3.79l-10.9-4.69-9.12-3.92q-5-2.16-10-4.28l-6.81-2.88q-4.65-2-9.29-4c-3.4-1.48-6.78-3-10.18-4.45s-6.68-2.85-10-4.27c-2.27-1-4.54-1.91-6.8-2.88s-4.76-2.09-7.13-3.13A5,5,0,0,0,875,831c-16.81-6.66-33.68-13.19-50.52-19.8q-27.82-10.85-55.61-21.79c-6-2.25-11.94-4.57-17.94-6.76-.72-.26-1.49-.88-2.26-.11l-49.2-18.41-13,5.27c-9.69,0-19.38,0-29.06,0q-43.65,0-87.29,0c-1.13,0-2.37-.36-3.34.6.63.5,1.37.3,2.07.3H683.18c0,.48-.34.55-.55.64q-8.29,3.38-16.6,6.72-12.74,5.1-25.47,10.23c-5.72,2.31-11.44,4.65-17.14,6.95-3.73,1.51-7.48,3-11.21,4.48-4.34,1.75-8.65,3.54-13,5.29-3.61,1.47-7.24,2.87-10.85,4.32-6.38,2.56-12.75,5.17-19.13,7.73L543.61,827c-6.34,2.55-12.63,5.14-19,7.68l-27.1,10.87c-7.1,2.87-14.19,5.79-21.29,8.64q-12,4.85-24,9.66c-4.82,1.93-9.67,3.8-14.47,5.77-1.3.54-2.76.79-3.83,1.83.7.48,1.39,1,2.1,1.43q14.25,9.23,29,17.7c7.38,4.25,14.84,8.37,22.41,12.29q10.83,5.61,21.87,10.81c7.19,3.35,14.45,6.58,21.78,9.6,14,5.79,28.23,11,42.73,15.46q13.13,4.08,26.48,7.33,13.07,3.18,26.29,5.59c6.07,1.11,12.17,2,18.28,2.93,3.59.52,7.23.81,10.83,1.29,1.51.2,3,.31,4.48.45,2.27.21,4.53.48,6.79.66,2.53.2,5.07.27,7.59.5,4,.36,7.92.58,11.88.62,6.12.06,12.24.42,18.35.2,5.65-.22,11.32-.09,17-.5,3.12-.22,6.24-.34,9.36-.5.18,0,.39-.06.58-.06l6.6-.62c1.88-.17,3.76-.29,5.64-.5,2.84-.32,5.66-.69,8.51-1,3.28-.42,6.59-.78,9.85-1.3,5.39-.85,10.77-1.73,16.13-2.75,5.61-1.07,11.21-2.22,16.78-3.51q18.16-4.17,35.9-9.83,19.62-6.24,38.66-14.1,12.26-5.05,24.29-10.7c6.77-3.19,13.49-6.48,20.12-9.94,6.91-3.62,13.79-7.33,20.57-11.19q16.69-9.54,32.83-20C967.57,871,966.86,870.92,966.37,870.7Z"/><path class="cls-4" d="M968,542.62a1.39,1.39,0,0,0-1.15-1.53c-3-1-5.89-2-8.84-3-5.34-1.82-10.7-3.64-16-5.48q-9.68-3.32-19.33-6.68-7.08-2.48-14.14-5-11.58-4.1-23.13-8.22-7.51-2.7-15-5.41l-24-8.63-19.43-7L808.6,485l-20.92-7.48q-8.71-3.12-17.44-6.2-10.65-3.76-21.32-7.48-9.55-3.33-19.13-6.64-6.91-2.38-13.82-4.7c-4.07-1.38-8.14-2.76-12.21-4.1-1-.31-2-.95-3-.81a14.79,14.79,0,0,0-2.94,1l-.18.07q-7.09,2.73-14.19,5.44l-12.21,4.65q-8.12,3.06-16.23,6.1c-3.89,1.47-7.79,2.88-11.69,4.32l-14.45,5.29L620,477.74l-15.37,5.62q-5.13,1.86-10.27,3.68-8.59,3.13-17.22,6.24l-11,4-16.66,6.06c-3.81,1.37-7.61,2.7-11.4,4.06l-17.21,6.25L511,517.19l-14.45,5.29-8.95,3.29-15.34,5.7c-4.62,1.73-9.26,3.43-13.87,5.18-7.34,2.8-14.69,5.59-22,8.49-3.15,1.26-2.75.38-2.75,4v320c0,.59,0,1.17,0,1.76a.75.75,0,0,0,.38.64,9.09,9.09,0,0,0,2.79-.84q9-3.6,17.91-7.22l73.87-29.77,73.87-29.76q39.15-15.72,78.21-31.54c1-.41,2.78-.54,2.76-1.67l16.09-6.51,68.56,25.68-1.44-1.26,2.15,1.29-.24-75.47.26-.15a1.86,1.86,0,0,0,.5-1.24,128.36,128.36,0,0,0-.13-13.59,1.29,1.29,0,0,0-.68-.63l-.16-47.93a2.77,2.77,0,0,0,.93-1.64,22.84,22.84,0,0,0,.09-3.31v-73.2c0-2.61.07-2.66,2.48-1.76,5.29,2,10.58,4.07,15.87,6.07,28.37,10.75,56.9,21.08,85.29,31.75,3.78,1.42,3.78,1.43,3.78,5.39V828.31a16.38,16.38,0,0,0,.18,3.7c.33,1,1.19,1.33,2,1.69l6.64,2.85q41,17.6,81.95,35.23a.68.68,0,0,0,.43-.58c0-.53,0-1.05,0-1.57V544C968,543.53,968,543.08,968,542.62ZM643.79,703.43a2,2,0,0,0-.41.49,47,47,0,0,0-.15,9.19,1.6,1.6,0,0,0,.55,1.19h0v10.21l-87.33,36.29a.88.88,0,0,0-1.06-.23c-.72.31-1.4.69-2.12,1-21.93,9-43.81,18.06-65.72,27.06-3,1.22-3,1.22-3-2V592.39c0-3.51,0-3.49,3.26-4.81,26.78-10.88,54-20.61,81.13-30.48,23.74-8.59,47.42-17.35,70.82-26.86,3.41-1.38,3.41-1.36,3.41,2.37V675.09a7,7,0,0,0,.37,3.45,1.71,1.71,0,0,0,.26.21Z"/><path class="cls-2" d="M877.35,830.65v-220a1.23,1.23,0,0,0-.81-1.2l-2.74-1c-3.64-1.37-7.26-2.75-10.93-4.11-2.91-1.08-5.85-2.12-8.76-3.21-4-1.5-8-3-12-4.52s-8-2.92-12.06-4.39l-4.74-1.77c-2.67-1-5.34-2-8-3-3.9-1.45-7.8-2.84-11.69-4.3l-16.91-6.42-18-6.89c-.43-.15-.86-.29-1.3-.4l-.15,0a.41.41,0,0,0-.41.41c-.05.64-.05,1.29-.05,1.95v65.06l-.07,102.67c-.45.43-.55,1.21-.55,2.58v45.2a3.53,3.53,0,0,0,.63,2.58c1.19.51,2.36,1,3.58,1.53q11.16,4.33,22.31,8.7c5.2,2,10.38,4.1,15.58,6.13,7.43,2.91,14.88,5.79,22.31,8.7,5.2,2,10.38,4.1,15.58,6.14l22.49,8.77c2.24.87,4.48,1.71,6.72,2.56C877.36,831.82,877.38,831.23,877.35,830.65Z"/></svg>