<svg id="Layer_1" data-name="Layer 1" xmlns="http://www.w3.org/2000/svg" viewBox="0 0 1401.6 1401.84"><defs><style>.cls-1{fill:#fff;}.cls-2{fill:#e8e7e1;}.cls-3{fill:#ac9b7e;}.cls-4{fill:#d8c8ae;}</style></defs><path class="cls-1" d="M1394.61,709.65v399.12a37.52,37.52,0,0,1-1.39,11.35,19.31,19.31,0,0,0-.73,3.27c-.68,5.41-3.11,9.95-6.49,14.14a26.39,26.39,0,0,1-5.07,5c-10.88,7.9-22.36,14.87-33.75,22a1477,1477,0,0,1-175.1,93.94,1221.35,1221.35,0,0,1-170.32,62.27c-26.46,7.45-53.18,13.77-80,19.76-17.63,3.93-35.37,7.28-53.18,10.23q-21.76,3.6-43.67,6.24c-14,1.71-28,3.18-42,4.29-12.43,1-24.9,1.61-37.35,2.27-21.58,1.16-43.18,1.21-64.78.79-17.59-.34-35.16-1.23-52.71-2.5-15.32-1.11-30.61-2.52-45.85-4.34-24-2.86-47.82-6.5-71.53-11.07-42.06-8.11-83.68-18-124.75-30.2a1223.47,1223.47,0,0,1-169-64.46c-64.71-30.14-126.68-65.18-186.47-104.12-3.08-2-6-4.27-9-6.37a12.48,12.48,0,0,1-2.72-2.66c-5.42-7-5.31-7-7.55-15.71a63.76,63.76,0,0,1-1.94-16.1q.08-390.48,0-781a88.47,88.47,0,0,1,2.3-20.38,31,31,0,0,1,12.22-18.22A45.45,45.45,0,0,1,35.07,281c70.7-27.43,141.88-53.58,213.17-79.43Q361,160.7,473.88,120c69.94-25.36,139.68-51.26,209-78.19,5.84-2.26,12-3.2,18.08-4.62,1.78-.41,3.47.33,5.18.68,9.25,1.9,18.16,4.92,27.09,7.93C811.16,72,888.68,99.4,966.06,127.19q114.72,41.2,229.4,82.49Q1283,241,1371.05,270.53c3,1,5.33,2.81,7.93,4.34,5,3,8,7.75,11.13,12.32a7.94,7.94,0,0,1,1,2.66c.86,3.4,1.65,6.83,2.5,10.24a36.86,36.86,0,0,1,1,9Q1394.59,509.37,1394.61,709.65Z"/><path class="cls-2" d="M561.67,628.66V277.22c0-1.44,0-2.88-.13-4.31v0a1.47,1.47,0,0,0-1.72-1.19q-.69.21-1.35.48c-4.59,1.82-9.2,3.61-13.77,5.47-19.35,7.86-38.73,15.62-58.3,22.93-13,4.88-25.85,10-38.85,14.88C432.77,321,418,326.51,403.12,331.8c-10.51,3.74-20.95,7.68-31.46,11.43q-22.76,8.16-45.42,16.44-19.55,7.11-39.07,14.27-20.66,7.55-41.21,15.41c-11.46,4.39-23,8.61-34.41,13.07q-19.19,7.47-38.19,15.26c-5.16,2.12-4.27,2-4.34,6.22V913.11c.1,3,.47,3.23,3,2.1,1-.44,2-1,3-1.44l36.73-15c8-3.28,15.84-6.66,23.84-9.94,8.4-3.46,16.84-6.83,25.25-10.28,6.78-2.77,13.54-5.62,20.32-8.4,9.29-3.82,18.6-7.59,27.89-11.41,7.07-2.91,14.13-5.87,21.2-8.78,2.91-1.2,5.86-2.32,8.76-3.53h0l99.75-41.13a26.13,26.13,0,0,0,8.42-2c6.74-2.95,13.68-5.42,20.38-8.47,2.1-1,5.88-1.56,5.4-3.81l88.72-37.23V628.66Z"/><path class="cls-3" d="M1354.37,1113c-7.15-3.16-14.34-6.22-21.51-9.31l-26.79-11.53c-7.47-3.21-14.93-6.45-22.4-9.65q-12.3-5.28-24.62-10.51c-5.58-2.37-11.17-4.68-16.74-7.07q-11.43-4.85-22.84-9.84c-8.35-3.63-16.65-7.32-25-10.92-8.19-3.54-16.41-7-24.63-10.49-5.57-2.37-11.16-4.7-16.72-7.1-5.86-2.53-11.68-5.12-17.52-7.68-1.47-1.89-3.6-2.54-5.68-3.36-41.33-16.36-82.78-32.41-124.15-48.65q-68.37-26.67-136.65-53.55c-14.7-5.54-29.34-11.25-44.1-16.61-1.76-.64-3.65-2.17-5.54-.28l-120.9-45.25-32,13c-23.81,0-47.61,0-71.42,0q-107.25-.07-214.5,0c-2.76,0-5.81-.9-8.2,1.46,1.54,1.25,3.37.75,5.08.75H658.46c-.09,1.17-.82,1.34-1.34,1.56q-20.39,8.29-40.8,16.52Q585,897,553.73,909.62c-14.05,5.66-28.12,11.41-42.12,17.08-9.17,3.71-18.38,7.3-27.55,11-10.65,4.31-21.26,8.7-31.91,13-8.87,3.62-17.79,7-26.67,10.62-15.67,6.29-31.32,12.69-47,19q-31.5,12.64-63,25.33c-15.56,6.26-31,12.62-46.56,18.87-22.19,8.93-44.41,17.78-66.6,26.71-17.45,7-34.87,14.22-52.32,21.22q-29.48,11.91-59,23.75c-11.84,4.75-23.75,9.33-35.54,14.18-3.2,1.32-6.79,1.95-9.41,4.5,1.71,1.18,3.4,2.39,5.14,3.52q35,22.66,71.22,43.48c18.15,10.45,36.48,20.57,55.08,30.2,17.74,9.19,35.63,18.09,53.74,26.56,17.67,8.25,35.51,16.18,53.51,23.6,34.46,14.22,69.39,27,105,38q32.26,10,65.07,18,32.12,7.82,64.62,13.75c14.91,2.72,29.91,5,44.91,7.19,8.84,1.28,17.77,2,26.63,3.18,3.69.49,7.35.75,11,1.1,5.57.52,11.12,1.17,16.69,1.61,6.21.49,12.45.66,18.65,1.23,9.72.9,19.47,1.43,29.2,1.52,15,.15,30.07,1,45.07.49,13.9-.52,27.82-.21,41.71-1.21,7.67-.54,15.34-.83,23-1.24.44,0,1-.15,1.44-.15q8.1-.78,16.21-1.52c4.62-.41,9.24-.7,13.85-1.22,7-.78,13.91-1.69,20.91-2.58,8.07-1,16.21-1.92,24.21-3.19,13.24-2.1,26.48-4.25,39.64-6.76,13.8-2.63,27.56-5.47,41.24-8.63q44.63-10.24,88.21-24.16,48.23-15.33,95-34.65,30.13-12.4,59.71-26.29c16.63-7.83,33.13-15.92,49.42-24.44,17-8.89,33.89-18,50.56-27.49q41-23.43,80.68-49.14C1357.31,1113.69,1355.57,1113.52,1354.37,1113Z"/><path class="cls-4" d="M1358.4,306.78c.1-2.07-.83-3.1-2.83-3.76-7.28-2.38-14.48-5-21.72-7.48q-19.69-6.69-39.42-13.46-23.78-8.15-47.5-16.43c-11.6-4-23.18-8.16-34.76-12.27q-28.43-10.06-56.83-20.2-18.48-6.63-36.94-13.29l-59-21.23-47.74-17.21q-22.47-8.17-45-16.27L915.25,146.8q-21.4-7.68-42.85-15.24-26.17-9.25-52.4-18.38Q796.53,105,773,96.87,756,91,739,85.32c-10-3.39-20-6.78-30-10.08-2.4-.77-4.81-2.33-7.29-2s-4.82,1.6-7.22,2.47l-.45.17q-17.43,6.7-34.87,13.37-15,5.75-30,11.41-19.94,7.55-39.88,15c-9.56,3.61-19.16,7.09-28.74,10.61l-35.5,13-22,8.07q-18.87,6.93-37.77,13.8c-8.4,3.06-16.82,6.06-25.23,9.06q-21.13,7.68-42.31,15.33c-9,3.25-18,6.46-27,9.71-13.65,4.95-27.29,9.94-40.94,14.87-9.35,3.38-18.69,6.64-28,10l-42.3,15.35q-12.15,4.39-24.29,8.83l-35.52,13c-7.32,2.69-14.67,5.36-22,8.08l-37.68,14c-11.37,4.24-22.75,8.42-34.08,12.74-18,6.86-36.1,13.73-54,20.86-7.75,3.09-6.75.92-6.75,9.72V1109c0,1.44.05,2.87.05,4.31a1.8,1.8,0,0,0,.92,1.57,22.26,22.26,0,0,0,6.87-2.05q22-8.83,44-17.74l181.52-73.16q90.76-36.59,181.54-73.14,96.2-38.61,192.19-77.51c2.46-1,6.82-1.31,6.78-4.09l39.55-16L867.06,914.3l-3.55-3.1,5.29,3.18-.6-185.47a6.88,6.88,0,0,0,.64-.36,4.56,4.56,0,0,0,1.22-3c.16-11.13.73-22.27-.32-33.4a3.18,3.18,0,0,0-1.67-1.54l-.38-117.78a6.79,6.79,0,0,0,2.28-4,58.18,58.18,0,0,0,.23-8.14V380.74c0-6.42.17-6.55,6.09-4.33,13,4.93,26,10,39,14.93,69.72,26.41,139.81,51.8,209.59,78,9.29,3.49,9.29,3.52,9.29,13.26v526.21c0,3-.25,6.09.43,9.09.82,2.45,2.93,3.28,5,4.17l16.32,7q100.71,43.23,201.36,86.57a1.65,1.65,0,0,0,1.07-1.44c.05-1.28.05-2.56.05-3.84V310.13C1358.4,309,1358.34,307.89,1358.4,306.78ZM561.68,701.94a4.82,4.82,0,0,0-1,1.21c-1.22,7.5-.6,15.05-.37,22.58a4,4,0,0,0,1.36,2.92l0,0v25.1L347.07,843a2.12,2.12,0,0,0-2.61-.57c-1.76.74-3.44,1.69-5.22,2.42-53.88,22.05-107.64,44.37-161.49,66.49-7.41,3-7.41,3-7.41-5V429.07c0-8.63,0-8.58,8-11.81C244.15,390.52,311,366.6,377.7,342.35c58.35-21.1,116.55-42.63,174.05-66,8.36-3.39,8.36-3.34,8.36,5.82V632.3c0,2.84-.5,5.77.91,8.48a5.08,5.08,0,0,0,.66.51Z"/><path class="cls-2" d="M1135.61,1014.57V474.05a3,3,0,0,0-2-2.95c-2.23-.85-4.48-1.65-6.72-2.49-9-3.36-17.85-6.76-26.85-10.09-7.17-2.67-14.38-5.22-21.55-7.9-9.86-3.67-19.68-7.45-29.54-11.1s-19.76-7.19-29.64-10.8c-3.9-1.42-7.77-2.89-11.65-4.34-6.57-2.46-13.12-5-19.7-7.39-9.56-3.58-19.16-7-28.71-10.58q-20.81-7.86-41.57-15.78l-44.2-16.91a32.9,32.9,0,0,0-3.2-1,1,1,0,0,0-.36-.07,1,1,0,0,0-1,1c-.14,1.59-.14,3.19-.14,4.79V538.32l-.17,252.29c-1.1,1.08-1.35,3-1.35,6.35V908c0,2.23-.09,4.51,1.56,6.35,2.93,1.25,5.8,2.58,8.8,3.74q27.43,10.67,54.82,21.38c12.77,5,25.51,10.08,38.28,15.08,18.27,7.14,36.56,14.22,54.82,21.37,12.78,5,25.51,10.08,38.28,15.08q27.63,10.79,55.27,21.55c5.51,2.14,11,4.2,16.51,6.3C1135.63,1017.45,1135.69,1016,1135.61,1014.57Z"/></svg>